<?xml version="1.0" encoding="utf-8"?>
<svg xmlns="http://www.w3.org/2000/svg" viewBox="0 0 150 150" xmlns:bx="https://boxy-svg.com">
  <g id="Layer_2" transform="matrix(1, 0, 0, 1, -15.737336, -41.983002)">
    <path class="cls-3" d="M 163.987 96.782 C 163.987 96.782 163.987 96.852 163.967 97.072 C 163.967 97.292 163.907 97.662 163.787 98.262 C 163.577 99.432 163.127 101.662 160.857 104.632 C 158.557 107.542 154.137 110.742 147.107 113.062 C 147.007 113.102 147.007 113.092 146.947 113.152 L 146.687 113.392 L 146.157 113.872 C 145.797 114.182 145.417 114.502 145.047 114.822 C 144.267 115.442 143.467 116.082 142.587 116.692 C 140.837 117.912 138.887 119.122 136.667 120.132 C 135.547 120.622 134.377 121.102 133.127 121.472 C 132.497 121.652 131.867 121.852 131.197 121.972 L 130.697 122.082 C 130.577 122.112 130.537 122.112 130.457 122.142 L 130.307 122.922 C 129.777 125.572 129.227 128.382 128.637 131.352 C 128.927 129.872 129.067 129.192 129.087 129.112 C 129.067 129.192 128.997 129.592 128.797 130.602 C 128.757 130.822 128.707 131.072 128.647 131.342 C 128.647 131.372 128.667 131.412 128.687 131.442 L 128.787 131.662 C 128.857 131.812 128.927 131.972 129.007 132.132 C 129.307 132.782 129.647 133.512 130.017 134.312 C 130.747 135.872 131.577 137.672 132.447 139.532 C 131.717 137.952 131.377 137.222 131.347 137.162 C 131.377 137.222 131.607 137.722 132.117 138.822 C 132.177 138.962 132.247 139.102 132.317 139.252 L 132.417 139.472 C 132.417 139.472 132.457 139.542 132.487 139.562 C 132.767 139.792 133.077 140.032 133.407 140.292 C 134.067 140.812 134.807 141.402 135.607 142.042 C 137.197 143.302 139.017 144.752 140.897 146.242 C 139.257 144.942 139.337 145.002 140.507 145.932 C 140.577 145.992 140.657 146.052 140.737 146.112 C 140.837 146.182 140.887 146.232 140.917 146.242 C 141.117 146.302 141.327 146.362 141.547 146.422 C 142.037 146.562 142.577 146.722 143.167 146.892 C 144.487 147.272 145.987 147.712 147.517 148.152 C 146.147 147.752 145.527 147.572 145.487 147.562 C 145.527 147.572 145.927 147.692 146.757 147.932 C 146.897 147.972 147.037 148.012 147.187 148.062 L 147.417 148.132 C 147.417 148.132 147.527 148.142 147.507 148.172 L 147.437 148.282 C 147.257 148.572 147.057 148.882 146.857 149.222 C 146.587 149.662 146.277 150.152 145.947 150.672 C 145.287 151.732 144.537 152.932 143.777 154.152 C 144.617 152.802 144.997 152.202 145.007 152.182 C 144.997 152.202 144.697 152.682 144.137 153.582 C 144.057 153.712 143.977 153.842 143.887 153.992 C 143.837 154.232 143.457 154.242 143.347 154.312 C 143.047 154.412 142.727 154.532 142.387 154.652 C 141.707 154.892 140.947 155.162 140.127 155.452 C 138.467 156.032 136.587 156.702 134.657 157.382 C 136.907 156.592 138.407 156.072 139.217 155.782 C 140.007 155.502 140.137 155.462 139.647 155.632 C 139.167 155.802 138.087 156.182 136.477 156.752 C 136.077 156.892 135.637 157.052 135.177 157.212 C 135.047 157.262 134.917 157.302 134.787 157.352 C 134.687 157.402 134.587 157.392 134.477 157.382 L 134.267 157.382 C 134.007 157.352 133.727 157.332 133.447 157.312 C 133.007 157.282 132.537 157.252 132.047 157.222 L 131.867 157.222 C 131.807 157.212 131.717 157.182 131.787 157.262 C 131.857 157.362 131.927 157.472 132.007 157.582 C 132.767 158.672 133.587 159.862 134.467 161.142 C 134.927 161.782 135.377 162.522 135.887 163.142 C 136.447 163.802 137.017 164.492 137.557 165.232 C 138.657 166.702 139.717 168.342 140.617 170.182 C 140.747 170.432 140.817 170.592 140.967 170.942 C 141.147 171.332 141.267 171.702 141.407 172.072 C 141.497 172.402 141.627 172.802 141.567 172.982 C 141.567 173.102 141.547 173.202 141.537 173.302 C 141.507 173.382 141.537 173.572 141.357 173.542 C 141.147 173.532 141.027 173.522 140.787 173.442 C 140.547 173.332 140.237 173.082 139.927 172.792 L 139.027 171.942 L 138.447 171.362 C 138.067 170.972 137.677 170.572 137.287 170.172 C 137.107 169.992 136.887 169.732 136.727 169.602 L 136.097 169.042 C 135.257 168.282 134.397 167.522 133.527 166.742 C 131.787 165.182 129.997 163.572 128.157 161.922 C 126.317 160.272 124.427 158.582 122.507 156.852 C 122.127 156.552 122.397 156.632 121.947 156.592 L 120.977 156.522 C 120.327 156.482 119.667 156.432 119.017 156.392 C 117.687 156.302 116.347 156.212 114.997 156.122 C 118.667 156.372 119.377 156.432 117.957 156.332 C 117.597 156.312 117.097 156.272 116.477 156.232 C 116.167 156.212 115.817 156.192 115.447 156.162 C 115.187 156.192 114.307 155.962 114.387 155.982 L 114.197 155.932 L 114.147 155.932 C 114.147 155.932 114.167 155.972 114.167 155.972 L 114.197 156.072 C 114.297 156.412 114.407 156.772 114.527 157.152 C 114.847 158.202 115.197 159.352 115.567 160.592 C 115.757 161.212 115.947 161.862 116.157 162.522 L 116.307 163.022 C 116.327 163.092 116.367 163.222 116.377 163.242 L 116.487 163.492 C 116.627 163.832 116.767 164.172 116.917 164.522 C 117.477 165.932 117.977 167.452 118.377 169.092 C 118.587 169.912 118.747 170.762 118.887 171.632 L 118.977 172.292 C 119.017 172.602 119.057 173.032 119.057 173.372 L 119.077 173.912 L 119.037 174.372 C 119.037 174.552 118.987 174.612 118.947 174.702 C 118.907 174.792 118.867 174.872 118.827 174.952 C 118.787 175.032 118.747 175.112 118.667 175.172 C 118.537 175.172 118.457 175.142 118.397 175.122 C 118.267 175.072 118.127 175.052 117.937 174.872 C 117.567 174.472 117.147 173.662 116.787 172.992 C 116.347 172.152 115.917 171.302 115.487 170.422 C 113.607 167.132 111.447 163.562 109.307 159.892 C 108.217 158.052 107.117 156.182 105.997 154.282 L 105.787 153.922 C 105.787 153.922 105.767 153.852 105.727 153.852 L 105.047 153.682 L 103.427 153.282 C 102.407 153.032 101.387 152.782 100.357 152.532 C 100.697 152.612 100.897 152.662 100.997 152.692 C 101.117 152.722 101.097 152.722 100.947 152.692 C 100.837 152.662 100.637 152.622 100.357 152.552 C 100.057 152.712 99.667 152.912 99.217 153.152 C 97.137 154.252 93.807 156.002 90.437 157.772 C 91.017 157.472 91.347 157.292 91.457 157.242 C 91.557 157.192 91.457 157.242 91.187 157.382 C 91.047 157.452 90.867 157.552 90.647 157.662 C 90.547 157.752 90.177 157.832 90.097 157.832 C 89.957 157.852 89.797 157.882 89.627 157.912 C 88.967 158.022 88.137 158.152 87.187 158.312 C 83.347 158.942 77.387 159.922 71.327 160.912 C 71.987 160.812 72.117 160.782 72.187 160.772 C 72.157 160.772 72.047 160.792 71.857 160.832 C 71.767 160.852 71.657 160.862 71.527 160.892 C 71.487 160.892 71.337 160.942 71.207 160.922 C 71.137 160.922 71.057 160.922 70.967 160.922 C 70.637 160.912 70.227 160.892 69.767 160.872 C 69.557 160.872 69.327 160.852 69.087 160.842 C 69.027 160.842 69.047 160.812 68.967 160.972 C 68.447 162.002 67.727 163.262 67.097 164.662 C 66.467 166.162 65.667 167.792 64.647 169.482 C 64.137 170.322 63.567 171.172 62.917 172.012 C 62.727 172.292 61.957 173.212 61.347 173.772 C 61.197 173.882 61.047 174.022 60.907 174.112 L 60.577 174.202 C 60.477 174.222 60.377 174.242 60.267 174.252 C 60.237 174.252 60.207 174.242 60.177 174.232 L 60.157 174.232 C 60.187 174.152 60.157 174.192 60.157 174.172 L 60.127 174.132 L 60.047 174.022 C 59.977 173.862 59.807 173.802 59.867 173.372 C 59.897 173.002 60.047 172.492 60.187 172.012 L 60.547 170.882 L 60.817 170.072 C 61.007 169.532 61.197 168.992 61.387 168.442 C 61.547 168.002 61.687 167.352 61.837 166.812 C 62.367 164.782 62.917 162.712 63.467 160.632 C 63.457 160.672 63.467 160.652 63.457 160.632 C 63.297 160.632 62.977 160.612 62.537 160.592 C 60.987 160.522 58.547 160.422 55.507 160.292 C 55.127 160.272 54.737 160.262 54.337 160.242 L 53.847 160.222 C 53.847 160.222 53.807 160.232 53.807 160.242 C 53.367 160.932 52.907 161.662 52.437 162.402 C 51.477 163.912 50.457 165.522 49.397 167.192 C 48.337 168.862 47.237 170.602 46.107 172.372 L 45.687 173.042 C 45.597 173.172 45.447 173.482 45.337 173.692 L 44.577 175.102 L 44.107 175.942 C 43.847 176.392 43.587 176.822 43.327 177.222 C 43.077 177.562 42.807 177.912 42.637 177.872 C 42.447 177.892 42.377 177.922 42.077 177.902 C 42.077 177.902 41.997 177.782 41.837 177.562 C 41.737 177.502 41.707 177.192 41.667 176.852 C 41.687 176.412 41.697 175.902 41.797 175.262 C 41.817 175.102 41.837 174.942 41.857 174.782 C 41.877 174.692 41.887 174.602 41.907 174.502 C 41.947 174.312 41.977 174.122 42.017 173.912 C 42.097 173.502 42.197 173.072 42.317 172.602 C 42.557 171.682 42.877 170.652 43.267 169.542 C 43.637 168.452 44.237 167.242 44.687 166.102 C 45.107 164.862 45.547 163.552 46.007 162.202 C 46.237 161.522 46.467 160.842 46.707 160.142 L 46.967 159.362 C 46.967 159.362 46.987 159.352 46.897 159.322 C 45.507 158.932 44.097 158.532 42.677 158.142 C 42.487 158.212 38.397 159.612 34.317 161.022 C 34.657 160.242 37.287 154.182 39.907 148.142 C 39.737 146.292 39.047 138.772 38.367 131.342 C 37.327 129.972 35.517 127.602 33.327 124.752 C 32.807 124.072 32.267 123.372 31.717 122.642 C 31.427 123.012 31.117 123.432 30.827 123.832 C 30.247 124.652 29.697 125.512 29.267 126.422 C 29.047 126.872 28.857 127.332 28.707 127.802 C 28.557 128.232 28.447 128.932 28.487 128.722 C 28.647 128.792 28.827 128.882 29.027 128.972 C 29.387 129.142 29.767 129.342 30.167 129.562 C 30.957 130.002 31.827 130.552 32.687 131.212 C 34.417 132.532 36.177 134.382 37.257 136.642 C 38.187 138.502 38.557 140.642 38.467 142.732 C 38.337 144.822 37.757 146.852 36.927 148.732 C 36.527 149.682 36.027 150.582 35.527 151.472 L 34.717 152.772 C 34.587 152.992 34.427 153.192 34.287 153.402 L 33.507 154.512 L 33.077 155.122 L 32.867 155.432 C 32.797 155.532 32.717 155.702 32.687 155.492 L 32.177 154.092 L 31.507 152.262 C 31.167 151.332 30.817 150.392 30.477 149.462 C 29.347 146.392 28.237 143.352 27.147 140.382 C 27.007 140.802 26.867 141.252 26.767 141.692 C 26.537 142.572 26.377 143.472 26.277 144.372 C 26.077 146.172 26.127 147.962 26.387 149.692 C 26.507 150.562 26.717 151.402 26.927 152.232 L 27.167 152.982 C 27.297 153.392 27.437 153.812 27.527 154.182 L 27.677 154.762 C 27.497 154.762 27.287 154.712 27.087 154.682 C 26.697 154.622 26.277 154.562 25.887 154.472 C 25.417 154.372 25.257 154.322 25.037 154.262 L 24.397 154.072 C 23.977 153.932 23.557 153.782 23.147 153.622 C 22.337 153.292 21.557 152.892 20.827 152.432 C 19.367 151.512 18.117 150.262 17.337 148.782 C 16.527 147.312 16.257 145.672 16.287 144.162 C 16.327 142.642 16.627 141.222 17.057 139.942 C 17.467 138.652 18.007 137.492 18.537 136.422 C 19.097 135.362 19.657 134.392 20.227 133.512 C 20.497 133.062 20.777 132.652 21.057 132.262 C 21.277 131.942 21.487 131.642 21.687 131.352 L 21.657 131.082 L 21.637 130.582 C 21.637 130.262 21.647 129.942 21.687 129.642 C 21.737 129.032 21.847 128.462 21.957 127.932 C 22.207 126.862 22.507 125.912 22.837 125.062 C 23.497 123.372 24.177 122.062 24.797 120.992 C 26.017 118.842 26.937 117.632 27.697 116.542 L 27.697 117.282 C 27.627 117.182 27.607 117.162 27.597 117.142 L 27.417 116.912 L 27.487 116.622 C 27.527 116.442 27.537 116.392 27.557 116.352 L 27.667 116.872 C 26.407 115.222 25.157 113.582 23.907 111.942 C 23.097 110.812 23.467 109.062 24.737 108.402 C 25.047 108.232 25.407 108.162 25.617 108.122 L 26.367 107.962 L 27.857 107.632 L 30.777 106.992 C 30.777 106.992 30.807 106.992 30.807 106.982 L 30.877 106.832 L 31.187 106.152 C 31.187 106.152 31.197 106.132 31.187 106.122 L 31.117 105.972 L 30.777 105.292 L 29.437 102.592 L 28.767 101.242 L 28.597 100.902 C 28.527 100.762 28.467 100.602 28.427 100.442 C 28.337 100.122 28.317 99.792 28.367 99.462 C 28.447 98.802 28.817 98.182 29.377 97.802 C 29.917 97.382 30.737 97.372 31.137 97.392 C 32.127 97.382 33.127 97.372 34.117 97.352 L 35.597 97.332 L 36.227 97.332 C 36.227 97.332 36.257 97.332 36.257 97.312 L 36.367 97.152 L 36.757 96.602 C 36.757 96.602 36.777 96.582 36.767 96.572 L 36.717 96.382 L 36.327 94.962 C 36.067 94.012 35.807 93.072 35.547 92.132 C 35.417 91.632 35.287 91.262 35.157 90.652 C 35.057 90.022 35.207 89.352 35.587 88.822 C 35.967 88.292 36.577 87.932 37.237 87.872 C 37.977 87.842 38.337 88.032 38.837 88.092 C 39.787 88.282 40.737 88.462 41.677 88.652 L 43.097 88.932 C 43.417 88.992 43.387 89.002 43.407 88.982 L 43.777 88.632 L 44.027 88.392 C 44.027 88.392 44.047 88.372 44.047 88.362 L 44.007 87.882 L 43.887 86.452 C 43.807 85.502 43.727 84.552 43.657 83.612 L 43.597 82.902 C 43.587 82.672 43.537 82.442 43.567 82.102 C 43.617 81.482 43.907 80.882 44.387 80.472 C 44.857 80.062 45.527 79.852 46.157 79.932 C 46.857 80.062 47.157 80.302 47.627 80.462 C 48.497 80.822 49.357 81.182 50.217 81.542 L 51.507 82.082 L 51.947 82.262 C 51.947 82.262 51.977 82.252 51.987 82.252 L 52.227 82.102 L 52.717 81.792 C 52.717 81.792 52.747 81.772 52.747 81.752 L 52.767 81.552 L 52.917 80.172 C 53.017 79.252 53.117 78.342 53.217 77.422 L 53.367 76.052 C 53.397 75.532 53.647 74.892 54.077 74.482 C 54.507 74.052 55.117 73.802 55.727 73.832 C 56.327 73.812 56.957 74.222 57.257 74.452 C 58.007 74.962 58.757 75.472 59.507 75.972 L 61.617 77.402 C 61.617 77.402 61.647 77.422 61.667 77.402 L 61.837 77.342 L 62.467 77.112 C 62.467 77.112 62.527 77.092 62.537 77.032 L 62.737 76.392 C 63.267 74.672 63.797 72.962 64.317 71.252 C 64.737 70.172 66.117 69.542 67.207 70.012 C 67.477 70.112 67.727 70.272 67.937 70.472 L 68.417 70.952 L 69.337 71.882 L 71.157 73.732 L 72.027 74.612 C 72.027 74.612 72.067 74.652 72.147 74.632 L 72.787 74.532 L 72.947 74.512 C 72.947 74.512 72.977 74.502 72.987 74.482 L 73.227 74.032 L 73.827 72.902 C 74.227 72.152 74.627 71.402 75.017 70.652 L 75.607 69.532 C 75.777 69.142 76.187 68.622 76.677 68.392 C 77.677 67.842 79.017 68.262 79.577 69.182 C 80.497 70.572 81.407 71.952 82.307 73.322 C 82.527 73.642 82.817 74.122 82.807 74.042 L 83.687 74.092 C 83.687 74.092 83.727 74.092 83.737 74.072 L 83.837 73.952 L 84.217 73.482 L 84.977 72.542 C 85.487 71.912 85.997 71.292 86.497 70.672 L 87.257 69.742 C 87.497 69.392 87.977 69.002 88.467 68.882 C 89.487 68.562 90.637 69.122 91.077 70.032 C 91.387 70.772 91.697 71.512 91.997 72.242 C 92.297 72.962 92.597 73.682 92.887 74.402 L 93.327 75.472 C 93.427 75.722 93.327 75.592 93.847 75.752 L 94.287 75.872 C 94.347 75.892 94.337 75.872 94.417 75.812 L 95.297 75.082 C 95.887 74.592 96.467 74.112 97.047 73.632 C 97.637 73.152 98.217 72.662 98.797 72.182 C 99.557 71.562 100.747 71.582 101.487 72.202 C 101.867 72.502 102.137 72.912 102.267 73.352 C 102.377 73.792 102.427 74.092 102.507 74.472 C 102.657 75.192 102.797 75.902 102.947 76.622 C 103.097 77.332 103.237 78.042 103.387 78.742 L 103.497 79.262 C 103.497 79.262 103.507 79.362 103.567 79.372 L 104.367 79.772 C 104.367 79.772 104.447 79.772 104.487 79.752 L 104.947 79.512 L 105.877 79.012 C 106.497 78.682 107.117 78.352 107.727 78.022 C 108.357 77.692 108.987 77.362 109.607 77.032 C 110.427 76.662 111.457 76.912 112.037 77.552 C 112.337 77.872 112.537 78.262 112.627 78.682 C 112.707 79.142 112.667 79.442 112.687 79.782 C 112.687 80.462 112.707 81.132 112.717 81.792 C 112.727 82.452 112.737 83.122 112.747 83.782 L 112.747 84.772 C 112.787 85.182 112.687 84.972 112.947 85.202 L 113.557 85.672 C 113.627 85.672 113.587 85.672 113.747 85.632 L 114.207 85.492 C 114.827 85.312 115.437 85.122 116.047 84.942 C 116.657 84.762 117.267 84.582 117.867 84.402 L 118.767 84.132 C 119.017 84.042 119.497 83.922 119.877 83.992 C 120.677 84.082 121.357 84.652 121.647 85.362 C 121.797 85.712 121.847 86.102 121.817 86.482 C 121.767 86.852 121.707 87.102 121.657 87.412 C 121.447 88.602 121.237 89.782 121.037 90.942 C 120.947 91.462 120.857 91.982 120.767 92.492 C 120.777 92.552 120.797 92.532 120.867 92.622 L 121.157 92.952 L 121.407 93.242 C 121.407 93.242 121.467 93.322 121.517 93.302 C 122.617 93.212 123.697 93.122 124.767 93.032 C 125.317 92.982 125.867 92.942 126.417 92.892 L 127.257 92.822 C 127.597 92.822 127.947 92.892 128.247 93.042 C 128.857 93.342 129.287 93.932 129.437 94.572 C 129.617 95.202 129.347 95.932 129.167 96.352 C 128.797 97.322 128.427 98.282 128.067 99.222 C 127.887 99.692 127.707 100.162 127.537 100.622 L 127.277 101.312 C 127.227 101.422 127.217 101.422 127.337 101.592 L 127.697 102.222 C 127.767 102.372 127.787 102.392 127.897 102.392 C 128.367 102.452 128.837 102.502 129.297 102.562 C 130.227 102.672 131.137 102.782 132.037 102.892 C 132.487 102.942 132.927 103.002 133.367 103.052 C 133.877 103.092 134.427 103.362 134.777 103.752 C 135.517 104.542 135.517 105.832 134.947 106.602 C 134.507 107.302 134.087 107.992 133.667 108.662 C 133.247 109.332 132.847 109.982 132.447 110.622 C 132.277 110.902 132.107 111.172 131.937 111.442 C 131.907 111.502 132.057 111.842 132.197 112.282 C 132.277 112.412 132.197 112.572 132.187 112.692 L 132.137 112.952 L 132.047 113.462 C 131.987 113.802 131.927 114.142 131.867 114.472 C 131.827 114.672 131.797 114.872 131.757 115.072 L 131.727 115.262 L 131.907 115.202 C 131.997 115.172 132.737 114.912 133.257 114.712 C 133.807 114.502 134.327 114.282 134.827 114.062 C 135.827 113.622 136.737 113.172 137.557 112.742 C 138.377 112.312 139.107 111.882 139.767 111.492 C 140.087 111.292 140.397 111.102 140.687 110.932 C 140.887 110.802 140.817 110.872 140.947 110.702 C 141.047 110.572 141.137 110.452 141.227 110.332 C 141.877 109.482 142.337 108.882 142.597 108.542 C 142.527 108.442 142.257 107.932 142.067 107.552 C 141.877 107.152 141.697 106.742 141.537 106.342 C 141.217 105.532 140.947 104.732 140.747 103.942 C 140.347 102.352 140.187 100.802 140.277 99.352 C 140.467 96.432 141.747 94.042 143.267 92.472 C 144.777 90.872 146.387 89.902 147.777 89.192 C 149.167 88.472 150.387 88.052 151.387 87.722 C 152.387 87.372 153.197 87.202 153.827 87.012 C 154.637 86.832 155.237 86.702 155.677 86.602 C 156.197 86.492 156.537 86.412 156.767 86.362 C 156.897 86.332 156.957 86.322 156.967 86.342 C 156.997 86.342 157.017 86.352 157.027 86.362 L 156.357 87.212 C 156.177 87.472 155.957 87.752 155.827 87.992 L 155.627 88.352 L 155.497 88.592 L 155.257 89.072 C 154.957 89.722 154.687 90.372 154.457 91.002 C 153.977 92.272 153.617 93.492 153.297 94.642 C 152.667 96.942 152.227 98.982 151.907 100.712 L 151.847 101.022 L 151.817 101.172 C 151.817 101.172 151.907 101.172 151.947 101.162 C 152.157 101.112 152.257 101.102 152.687 100.942 C 153.387 100.712 153.997 100.412 154.537 100.112 C 155.627 99.522 156.407 98.872 157.047 98.352 C 158.267 97.252 158.827 96.552 159.127 96.192 C 159.417 95.822 159.457 95.772 159.457 95.772 C 160.697 94.152 161.447 92.822 161.947 91.942 C 162.437 91.062 162.717 90.652 162.787 90.702 C 162.857 90.752 162.707 91.262 162.327 92.232 C 161.927 93.182 161.237 94.572 160.007 96.202 C 160.007 96.202 159.967 96.252 159.667 96.642 C 159.357 97.022 158.777 97.742 157.507 98.892 C 156.837 99.432 156.027 100.112 154.877 100.732 C 154.307 101.042 153.657 101.352 152.917 101.612 C 152.627 101.732 151.957 101.912 151.397 101.992 C 151.267 101.992 151.067 102.082 150.997 102.012 L 151.057 101.572 C 151.087 101.282 151.167 100.932 151.227 100.602 C 151.557 98.812 151.997 96.792 152.637 94.452 C 152.957 93.292 153.327 92.052 153.817 90.752 C 154.057 90.102 154.327 89.442 154.637 88.762 L 154.887 88.262 L 155.087 87.872 C 155.177 87.712 155.267 87.562 155.387 87.412 C 155.377 87.412 155.497 87.322 155.387 87.362 C 155.317 87.382 155.207 87.402 155.047 87.442 C 154.807 87.502 154.467 87.572 154.017 87.672 C 153.407 87.862 152.607 88.022 151.637 88.372 C 150.657 88.702 149.477 89.112 148.127 89.802 C 146.787 90.482 145.237 91.422 143.817 92.932 C 142.387 94.412 141.207 96.622 141.017 99.372 C 140.927 100.742 141.077 102.212 141.467 103.742 C 141.657 104.502 141.917 105.272 142.227 106.052 C 142.377 106.442 142.557 106.832 142.747 107.212 C 142.947 107.612 143.087 107.902 143.497 108.572 C 143.187 108.982 142.637 109.722 141.847 110.762 C 141.757 110.882 141.667 111.002 141.567 111.132 C 141.527 111.182 141.467 111.282 141.367 111.382 L 141.107 111.552 C 140.817 111.732 140.507 111.922 140.177 112.132 C 139.517 112.532 138.777 112.962 137.937 113.412 C 137.107 113.852 136.187 114.322 135.167 114.772 C 134.657 115.002 134.127 115.222 133.567 115.442 C 132.977 115.672 132.567 115.832 131.467 116.192 L 130.747 116.422 C 130.767 116.192 130.827 115.922 130.867 115.672 C 130.947 115.232 131.017 114.772 131.097 114.322 C 131.157 113.992 131.207 113.652 131.267 113.312 L 131.357 112.802 L 131.397 112.542 C 131.397 112.482 131.417 112.462 131.397 112.432 L 131.237 111.982 L 131.127 111.652 C 131.097 111.512 130.967 111.372 131.097 111.252 C 131.317 110.902 131.537 110.542 131.757 110.192 C 132.147 109.552 132.557 108.902 132.967 108.232 C 133.377 107.562 133.807 106.872 134.237 106.172 C 134.657 105.602 134.607 104.832 134.157 104.332 C 133.927 104.082 133.637 103.932 133.277 103.902 C 132.837 103.852 132.397 103.802 131.947 103.742 C 131.057 103.632 130.137 103.532 129.207 103.422 C 128.737 103.362 128.267 103.312 127.787 103.252 C 127.607 103.212 127.367 103.252 127.237 103.132 L 126.957 102.652 L 126.597 102.032 L 126.327 101.562 C 126.277 101.382 126.437 101.182 126.477 101.002 L 126.737 100.312 C 126.917 99.852 127.087 99.382 127.267 98.912 C 127.627 97.972 127.987 97.012 128.357 96.032 C 128.567 95.502 128.687 95.182 128.587 94.762 C 128.497 94.372 128.227 94.012 127.877 93.842 C 127.697 93.752 127.497 93.712 127.307 93.712 L 126.517 93.782 C 125.967 93.832 125.427 93.872 124.867 93.922 C 123.717 94.022 122.557 94.122 121.377 94.222 C 121.267 94.202 121.107 94.312 121.047 94.182 L 120.807 93.912 L 120.487 93.552 L 120.207 93.232 C 120.137 93.092 119.817 92.902 119.827 92.682 C 119.937 92.052 120.047 91.422 120.157 90.782 C 120.357 89.622 120.567 88.442 120.767 87.252 L 120.917 86.392 C 120.937 86.162 120.907 85.932 120.817 85.722 C 120.647 85.292 120.237 84.972 119.797 84.922 C 119.417 84.852 118.767 85.162 118.167 85.302 C 117.567 85.482 116.957 85.662 116.347 85.842 C 115.737 86.022 115.127 86.212 114.507 86.392 L 114.047 86.532 C 113.907 86.532 113.537 86.762 113.327 86.672 L 112.397 85.952 C 112.327 85.882 111.987 85.672 111.847 85.482 L 111.847 84.772 C 111.847 84.772 111.817 83.782 111.817 83.782 C 111.807 83.122 111.797 82.462 111.787 81.792 C 111.777 81.122 111.767 80.452 111.757 79.782 C 111.757 79.042 111.757 78.582 111.377 78.202 C 111.037 77.832 110.487 77.712 110.027 77.912 C 109.427 78.232 108.837 78.552 108.227 78.872 C 107.617 79.202 106.997 79.532 106.377 79.872 L 105.447 80.372 L 104.967 80.632 L 104.557 80.852 C 104.487 80.912 104.417 80.892 104.347 80.842 L 104.137 80.742 L 103.017 80.182 C 102.897 80.092 102.677 80.092 102.657 79.932 L 102.557 79.472 L 102.447 78.942 C 102.297 78.242 102.157 77.532 102.007 76.822 C 101.857 76.112 101.707 75.392 101.557 74.682 C 101.487 74.342 101.407 73.922 101.337 73.652 C 101.257 73.392 101.107 73.162 100.897 73.002 C 100.487 72.662 99.867 72.662 99.447 73.002 C 98.877 73.472 98.307 73.952 97.727 74.432 C 97.147 74.912 96.567 75.402 95.977 75.882 L 95.097 76.612 C 94.877 76.762 94.617 77.162 94.267 76.942 L 93.597 76.762 L 92.907 76.582 L 92.657 76.522 C 92.607 76.462 92.587 76.372 92.557 76.292 L 92.387 75.892 L 91.937 74.822 C 91.637 74.102 91.337 73.392 91.037 72.662 C 90.737 71.952 90.447 71.242 90.147 70.532 C 89.897 70.022 89.287 69.742 88.757 69.912 C 88.477 70.002 88.297 70.132 88.067 70.432 L 87.317 71.362 C 86.817 71.982 86.307 72.612 85.797 73.242 L 85.037 74.182 L 84.657 74.652 L 84.377 75.002 L 84.207 75.212 C 84.117 75.212 84.027 75.212 83.937 75.202 L 82.377 75.122 C 82.157 75.172 82.107 74.932 81.997 74.802 L 81.767 74.462 L 81.427 73.952 C 80.517 72.582 79.607 71.202 78.687 69.822 C 78.367 69.312 77.687 69.122 77.177 69.392 C 76.907 69.542 76.747 69.702 76.577 70.072 L 75.987 71.192 C 75.597 71.942 75.197 72.692 74.797 73.442 L 74.197 74.572 L 73.837 75.252 L 73.697 75.512 C 73.637 75.582 73.517 75.552 73.427 75.582 L 72.947 75.652 L 72.317 75.752 L 71.757 75.832 C 71.567 75.842 71.467 75.592 71.317 75.492 L 70.367 74.532 L 68.547 72.682 L 67.627 71.752 L 67.177 71.302 C 67.067 71.202 66.937 71.122 66.797 71.062 C 66.237 70.832 65.557 71.132 65.327 71.712 C 64.817 73.372 64.307 75.052 63.797 76.732 L 63.607 77.372 L 63.437 77.942 C 63.277 78.042 63.057 78.092 62.877 78.172 L 62.247 78.402 L 61.787 78.572 L 61.497 78.682 L 61.237 78.512 C 60.457 77.982 59.667 77.452 58.877 76.922 C 58.127 76.412 57.377 75.912 56.627 75.402 C 56.197 75.102 56.027 74.992 55.697 74.982 C 55.397 74.972 55.097 75.092 54.877 75.312 C 54.657 75.542 54.527 75.802 54.507 76.192 L 54.367 77.562 C 54.267 78.472 54.177 79.392 54.077 80.312 L 53.927 81.692 L 53.877 82.182 C 53.857 82.282 53.877 82.412 53.817 82.492 L 53.547 82.662 L 52.857 83.092 L 52.507 83.312 L 52.227 83.482 L 52.087 83.572 C 52.087 83.572 51.987 83.532 51.937 83.512 L 51.087 83.162 L 49.797 82.622 C 48.937 82.262 48.067 81.902 47.207 81.542 C 46.797 81.382 46.277 81.122 46.037 81.092 C 45.727 81.052 45.417 81.152 45.177 81.362 C 44.937 81.562 44.787 81.882 44.757 82.202 C 44.737 82.332 44.777 82.572 44.787 82.812 L 44.847 83.522 C 44.927 84.472 45.007 85.412 45.087 86.362 L 45.207 87.792 L 45.287 88.742 C 45.337 88.872 45.177 88.922 45.117 89.002 L 44.867 89.232 L 44.597 89.482 L 43.927 90.112 C 43.787 90.362 43.527 90.172 43.317 90.162 L 42.887 90.082 L 41.467 89.812 C 40.517 89.632 39.577 89.442 38.627 89.262 C 38.177 89.192 37.597 89.022 37.357 89.062 C 37.047 89.092 36.747 89.262 36.557 89.522 C 36.367 89.782 36.277 90.132 36.337 90.462 C 36.417 90.812 36.587 91.372 36.707 91.812 C 36.967 92.752 37.227 93.692 37.497 94.642 L 37.897 96.062 L 38.047 96.582 C 38.197 96.822 37.957 96.992 37.837 97.192 L 37.377 97.842 L 37.067 98.282 C 36.987 98.352 36.957 98.522 36.837 98.512 L 36.487 98.512 C 36.487 98.512 35.637 98.532 35.637 98.532 L 34.157 98.552 L 31.177 98.592 C 30.607 98.592 30.367 98.592 30.077 98.792 C 29.807 98.972 29.627 99.282 29.577 99.622 C 29.557 99.792 29.567 99.962 29.607 100.122 C 29.627 100.202 29.657 100.282 29.697 100.362 L 29.867 100.702 L 30.537 102.052 L 31.877 104.752 L 32.217 105.432 L 32.477 105.962 C 32.497 106.012 32.557 106.072 32.537 106.122 L 32.467 106.282 L 32.317 106.612 L 31.997 107.312 L 31.747 107.852 L 31.677 108.012 C 31.677 108.012 31.567 108.042 31.507 108.062 L 31.157 108.142 L 28.137 108.812 L 26.647 109.142 C 26.187 109.262 25.537 109.352 25.327 109.472 C 24.727 109.762 24.527 110.672 24.937 111.232 C 26.177 112.852 27.417 114.472 28.667 116.102 L 28.847 116.332 L 28.777 116.622 C 28.777 116.622 28.757 116.712 28.717 116.892 L 28.607 116.372 C 28.607 116.372 28.647 116.422 28.717 116.512 L 28.987 116.872 L 28.717 117.252 C 27.977 118.312 27.087 119.502 25.907 121.582 C 25.317 122.612 24.657 123.882 24.037 125.482 C 23.717 126.282 23.437 127.182 23.217 128.172 C 23.107 128.672 23.017 129.192 22.967 129.732 C 22.937 130.002 22.927 130.272 22.927 130.552 L 22.947 130.962 L 22.967 131.172 L 23.047 131.622 C 22.757 132.042 22.447 132.492 22.137 132.952 C 21.867 133.332 21.587 133.742 21.337 134.172 C 20.787 135.022 20.257 135.962 19.717 136.982 C 18.707 139.022 17.687 141.452 17.617 144.162 C 17.597 145.502 17.817 146.902 18.517 148.142 C 19.177 149.392 20.257 150.482 21.567 151.312 C 22.217 151.732 22.927 152.092 23.677 152.392 C 24.047 152.542 24.437 152.682 24.827 152.802 L 25.417 152.972 L 25.817 153.082 C 25.817 153.082 25.847 153.092 25.847 153.082 L 25.677 152.562 C 25.457 151.682 25.227 150.782 25.107 149.862 C 24.827 148.022 24.777 146.112 24.987 144.202 C 25.097 143.242 25.257 142.292 25.507 141.342 C 25.627 140.862 25.767 140.412 25.927 139.912 C 26.237 138.992 26.617 138.212 26.977 137.492 L 27.117 137.212 L 27.187 137.072 C 27.207 137.022 27.237 136.952 27.257 137.032 L 27.507 137.572 C 27.677 137.942 27.837 138.252 28.007 138.742 L 28.717 140.682 C 29.047 141.592 29.387 142.502 29.727 143.422 C 30.397 145.262 31.077 147.112 31.767 148.972 C 32.107 149.902 32.447 150.832 32.797 151.772 L 33.157 152.742 C 33.157 152.742 33.157 152.742 33.157 152.742 C 33.157 152.742 33.137 152.762 33.237 152.622 C 33.377 152.422 33.527 152.222 33.657 152.012 L 34.427 150.762 C 34.907 149.912 35.387 149.062 35.757 148.162 C 36.537 146.392 37.067 144.522 37.187 142.632 C 37.267 140.752 36.947 138.862 36.107 137.192 C 35.147 135.172 33.547 133.472 31.927 132.242 C 31.117 131.622 30.317 131.112 29.567 130.692 C 29.197 130.482 28.837 130.302 28.507 130.142 C 28.337 130.062 28.177 129.992 28.017 129.922 C 27.697 129.792 27.387 129.672 27.097 129.562 C 27.207 128.302 27.307 127.952 27.487 127.372 C 27.657 126.822 27.877 126.302 28.117 125.812 C 28.597 124.812 29.187 123.902 29.797 123.032 C 30.107 122.602 30.407 122.192 30.747 121.772 C 31.067 121.382 31.377 120.992 31.687 120.602 L 31.807 120.462 C 31.807 120.462 31.887 120.552 31.917 120.602 L 32.147 120.892 L 32.597 121.482 C 33.237 122.322 33.857 123.142 34.457 123.922 C 36.737 126.912 38.627 129.392 39.717 130.822 C 40.417 138.562 41.127 146.402 41.307 148.332 C 39.167 153.252 37.017 158.192 36.737 158.822 C 39.647 157.822 42.567 156.822 42.707 156.772 C 44.247 157.202 45.787 157.642 47.307 158.062 L 48.327 158.352 C 48.897 158.342 48.477 158.842 48.427 159.152 C 48.277 159.602 48.127 160.042 47.977 160.482 C 47.737 161.192 47.497 161.882 47.267 162.572 C 46.797 163.942 46.347 165.272 45.927 166.532 C 45.407 167.832 44.887 168.862 44.507 169.952 C 44.117 171.012 43.817 172.002 43.587 172.892 C 43.477 173.332 43.377 173.752 43.297 174.132 C 43.237 174.442 43.187 174.722 43.137 174.972 C 43.117 175.082 43.117 175.132 43.117 175.142 C 43.147 175.152 43.167 175.092 43.187 175.062 L 43.527 174.452 L 44.277 173.062 C 44.417 172.812 44.487 172.642 44.687 172.322 L 45.107 171.662 C 46.237 169.892 47.337 168.162 48.397 166.492 C 49.457 164.822 50.477 163.222 51.437 161.712 C 51.927 160.952 52.397 160.212 52.847 159.502 L 53.167 159.002 C 53.197 158.882 53.337 158.962 53.427 158.942 L 53.717 158.942 C 53.957 158.962 54.197 158.972 54.437 158.992 C 54.837 159.012 55.227 159.032 55.607 159.042 C 58.647 159.182 61.097 159.292 62.637 159.362 C 63.747 159.412 64.527 159.452 64.937 159.472 C 64.967 159.472 65.007 159.472 65.027 159.482 L 65.007 159.562 C 64.997 159.612 64.977 159.652 64.977 159.692 C 64.957 159.762 64.947 159.802 64.947 159.812 C 64.947 159.792 64.967 159.722 65.037 159.472 C 64.357 162.032 63.687 164.572 63.027 167.062 C 62.857 167.642 62.767 168.142 62.547 168.782 C 62.357 169.322 62.167 169.862 61.977 170.392 C 61.837 170.812 61.697 171.232 61.557 171.652 C 61.537 171.722 61.507 171.792 61.497 171.872 C 61.497 171.962 61.597 171.822 61.637 171.792 L 61.707 171.712 L 62.057 171.272 C 62.667 170.472 63.217 169.652 63.717 168.842 C 64.707 167.222 65.487 165.632 66.097 164.182 C 66.787 162.662 67.487 161.472 68.027 160.402 C 68.137 160.182 68.257 159.972 68.367 159.762 C 68.397 159.592 68.567 159.672 68.677 159.662 L 69.047 159.682 C 69.337 159.692 69.607 159.712 69.867 159.722 C 70.337 159.742 70.737 159.762 71.067 159.782 C 71.147 159.782 71.227 159.782 71.307 159.792 C 71.317 159.792 71.307 159.792 71.397 159.782 C 71.527 159.762 71.637 159.742 71.727 159.732 C 71.917 159.702 72.027 159.682 72.057 159.682 C 71.997 159.692 71.877 159.712 71.307 159.812 C 77.327 158.832 83.247 157.872 87.057 157.252 C 88.017 157.092 88.837 156.962 89.497 156.852 C 89.827 156.792 90.167 156.762 90.187 156.722 C 90.407 156.602 90.587 156.512 90.727 156.442 C 90.997 156.302 91.097 156.252 90.997 156.302 C 90.897 156.352 90.617 156.502 90.127 156.762 C 93.437 155.022 96.717 153.302 98.767 152.232 C 99.347 151.932 99.847 151.672 100.227 151.462 C 100.387 151.462 100.547 151.532 100.687 151.552 C 100.767 151.572 100.847 151.592 100.907 151.602 C 101.037 151.632 101.147 151.662 101.217 151.682 C 101.367 151.722 101.387 151.722 101.267 151.692 C 101.117 151.652 100.787 151.572 100.247 151.442 C 101.407 151.722 102.557 152.012 103.697 152.292 L 105.317 152.692 L 106.247 152.922 L 106.427 152.962 C 106.427 152.962 106.497 153.062 106.527 153.112 L 106.707 153.422 L 106.917 153.782 C 108.037 155.682 109.137 157.552 110.217 159.382 C 112.377 163.082 114.467 166.542 116.417 169.982 C 116.837 170.852 117.267 171.702 117.697 172.522 L 117.877 172.862 C 117.907 172.932 118.057 173.172 118.057 172.962 C 118.057 172.842 118.057 172.732 118.057 172.612 L 118.037 172.402 L 117.957 171.772 C 117.827 170.932 117.667 170.112 117.467 169.312 C 117.077 167.722 116.597 166.232 116.057 164.862 C 115.917 164.522 115.777 164.182 115.647 163.852 L 115.547 163.602 C 115.487 163.462 115.487 163.412 115.447 163.312 L 115.297 162.802 C 115.097 162.122 114.897 161.472 114.707 160.842 C 114.327 159.582 113.977 158.422 113.657 157.362 C 113.457 156.692 113.267 156.052 113.077 155.442 C 113.017 155.242 112.957 155.042 112.897 154.842 L 112.807 154.552 L 113.097 154.622 C 113.487 154.722 113.857 154.812 114.217 154.902 C 115.157 155.122 115.057 155.142 115.547 155.162 C 115.927 155.192 116.267 155.212 116.577 155.232 C 117.207 155.272 117.697 155.312 118.057 155.332 C 119.517 155.432 118.697 155.382 115.177 155.152 C 116.497 155.242 117.817 155.332 119.117 155.422 C 119.777 155.462 120.427 155.512 121.077 155.552 L 122.047 155.622 L 122.307 155.642 C 122.437 155.672 122.587 155.622 122.697 155.702 L 123.167 156.122 C 125.087 157.852 126.967 159.542 128.807 161.192 C 130.647 162.842 132.427 164.452 134.167 166.012 C 135.037 166.792 135.887 167.562 136.727 168.312 L 137.357 168.872 C 137.627 169.112 137.767 169.282 137.967 169.492 C 138.347 169.892 138.737 170.282 139.107 170.672 C 139.387 170.952 139.667 171.222 139.937 171.502 C 140.077 171.632 140.207 171.772 140.367 171.862 C 140.427 171.722 140.307 171.512 140.267 171.352 L 140.167 171.102 C 140.117 170.982 139.977 170.682 139.877 170.482 C 139.007 168.712 137.977 167.112 136.907 165.672 C 136.377 164.952 135.827 164.272 135.277 163.622 C 134.697 162.922 134.287 162.232 133.817 161.562 C 132.877 160.202 131.997 158.932 131.197 157.762 C 130.877 157.302 130.577 156.862 130.267 156.422 L 130.157 156.262 C 130.157 156.262 130.097 156.192 130.117 156.192 L 130.217 156.192 C 130.217 156.192 130.607 156.222 130.607 156.222 C 130.867 156.242 131.127 156.262 131.377 156.272 C 132.137 156.322 132.847 156.372 133.527 156.422 C 133.807 156.442 134.077 156.462 134.347 156.482 C 134.507 156.482 134.567 156.512 134.597 156.482 L 134.917 156.372 C 135.387 156.212 135.817 156.052 136.227 155.912 C 137.837 155.352 138.917 154.972 139.407 154.802 C 139.887 154.632 139.767 154.682 138.977 154.962 C 138.197 155.242 136.757 155.752 134.577 156.512 C 136.447 155.852 138.287 155.212 139.897 154.642 C 140.717 154.352 141.477 154.092 142.157 153.852 C 142.497 153.732 142.817 153.622 143.117 153.512 C 143.277 153.452 143.287 153.482 143.327 153.402 C 143.397 153.302 143.457 153.202 143.517 153.102 C 144.077 152.212 144.377 151.732 144.387 151.712 C 144.377 151.732 144.047 152.262 143.307 153.452 C 144.017 152.312 144.717 151.192 145.327 150.202 C 145.637 149.712 145.927 149.252 146.177 148.832 C 146.237 148.742 146.287 148.652 146.337 148.572 C 146.367 148.502 146.197 148.512 146.147 148.482 C 145.587 148.322 145.317 148.242 145.287 148.232 C 145.307 148.232 145.637 148.332 146.357 148.542 C 145.167 148.192 143.997 147.852 142.967 147.562 C 142.377 147.392 141.837 147.232 141.347 147.092 C 141.087 147.012 140.837 146.942 140.607 146.882 C 140.267 146.672 140.227 146.592 140.047 146.462 C 138.927 145.572 138.687 145.382 140.557 146.862 C 138.637 145.332 136.777 143.852 135.157 142.572 C 134.357 141.932 133.617 141.342 132.957 140.822 C 132.627 140.562 132.307 140.312 132.027 140.082 L 131.857 139.952 C 131.827 139.892 131.797 139.832 131.767 139.762 L 131.647 139.512 C 131.577 139.362 131.507 139.212 131.447 139.072 C 130.937 137.972 130.707 137.472 130.677 137.412 C 130.707 137.472 131.067 138.252 131.847 139.932 C 130.957 138.022 130.097 136.162 129.347 134.552 C 128.977 133.762 128.637 133.022 128.337 132.372 C 128.257 132.212 128.187 132.052 128.117 131.902 L 128.007 131.672 C 127.967 131.552 127.867 131.452 127.887 131.332 C 127.957 130.992 128.017 130.682 128.077 130.402 C 128.277 129.392 128.357 129.002 128.377 128.922 C 128.357 129.012 128.207 129.762 127.887 131.392 C 128.497 128.332 129.067 125.452 129.607 122.732 C 129.687 122.322 129.767 121.912 129.847 121.512 C 130.047 121.422 130.367 121.392 130.567 121.332 L 131.047 121.232 C 131.687 121.112 132.307 120.922 132.917 120.752 C 134.137 120.392 135.277 119.932 136.367 119.442 C 138.547 118.452 140.457 117.272 142.177 116.072 C 143.037 115.472 143.837 114.852 144.597 114.232 C 144.967 113.912 145.337 113.602 145.687 113.292 L 146.207 112.822 L 146.457 112.582 C 146.547 112.442 146.767 112.362 146.887 112.332 C 153.817 110.052 158.107 106.932 160.307 104.142 C 162.467 101.302 162.897 99.192 163.097 98.082 C 163.207 97.512 163.267 97.162 163.267 96.952 C 163.277 96.742 163.287 96.672 163.287 96.672 C 163.447 94.672 163.217 93.172 163.037 92.192 C 162.837 91.212 162.707 90.732 162.787 90.702 C 162.857 90.672 163.147 91.132 163.477 92.122 C 163.787 93.112 164.117 94.662 163.977 96.732 L 163.987 96.782 Z" style="fill: rgb(29, 29, 27);"/>
    <path class="cls-3" d="M 96.897 97.202 C 96.897 97.202 96.807 97.392 96.647 97.732 C 96.467 98.062 96.297 98.592 96.067 99.232 C 95.667 100.512 95.327 102.462 96.017 104.452 C 96.197 104.942 96.417 105.432 96.717 105.882 C 96.857 106.112 97.027 106.332 97.197 106.542 C 97.287 106.652 97.377 106.742 97.467 106.842 L 97.607 106.972 C 97.607 106.972 97.757 107.122 97.757 107.122 L 97.827 107.192 C 98.527 108.062 99.517 108.662 100.597 108.772 C 102.777 109.012 105.087 107.652 106.557 106.452 C 107.207 105.782 107.667 104.832 107.807 103.762 C 107.957 102.682 107.827 101.502 107.537 100.352 C 107.237 99.202 106.797 98.062 106.267 97.012 L 106.067 96.632 C 106.067 96.632 105.967 96.532 105.857 96.432 L 105.237 95.862 C 104.787 95.562 104.357 95.222 103.877 95.042 C 101.987 94.142 100.047 94.732 98.937 95.422 C 98.357 95.752 97.927 96.092 97.647 96.332 C 97.357 96.572 97.227 96.722 97.227 96.722 C 96.917 97.032 96.417 96.612 96.727 96.242 C 96.727 96.242 96.877 96.072 97.167 95.802 C 97.457 95.522 97.897 95.142 98.527 94.752 C 99.147 94.362 99.957 93.942 100.967 93.762 C 101.967 93.572 103.167 93.652 104.277 94.122 C 104.857 94.322 105.357 94.682 105.887 95.022 C 106.127 95.222 106.367 95.422 106.607 95.632 L 106.787 95.782 C 106.867 95.832 106.967 95.942 107.027 96.062 L 107.267 96.482 C 107.867 97.592 108.367 98.782 108.727 100.032 C 109.077 101.282 109.267 102.612 109.107 103.932 C 108.957 105.252 108.377 106.502 107.507 107.402 C 106.527 108.222 105.567 108.822 104.367 109.352 C 103.197 109.852 101.837 110.192 100.437 110.002 C 99.027 109.832 97.737 108.972 96.957 107.922 L 96.857 107.812 L 96.667 107.622 C 96.557 107.502 96.447 107.372 96.347 107.242 C 96.147 106.982 95.957 106.722 95.797 106.452 C 95.467 105.912 95.237 105.332 95.047 104.772 C 94.347 102.452 94.827 100.322 95.307 98.982 C 95.577 98.312 95.787 97.772 95.987 97.432 C 96.167 97.082 96.267 96.892 96.267 96.892 C 96.537 96.502 97.037 96.792 96.877 97.212 L 96.897 97.202 Z" style="fill: rgb(29, 29, 27);"/>
    <path class="cls-3" d="M 107.897 99.682 C 107.897 99.682 107.877 99.312 107.677 98.762 C 107.487 98.222 107.087 97.442 106.377 96.992 C 105.667 96.532 104.737 96.702 104.177 97.442 C 103.597 98.162 103.397 99.192 103.447 100.052 C 103.477 100.912 103.787 101.912 104.427 102.572 C 105.057 103.262 105.997 103.332 106.667 102.802 C 107.337 102.282 107.657 101.472 107.787 100.912 C 107.927 100.342 107.907 99.972 107.907 99.972 C 107.917 99.782 108.577 99.732 108.597 99.962 C 108.597 99.962 108.657 100.372 108.557 101.062 C 108.447 101.732 108.197 102.742 107.297 103.582 C 106.847 103.982 106.187 104.292 105.467 104.272 C 104.747 104.272 104.057 103.922 103.567 103.462 C 102.557 102.522 102.157 101.212 102.097 100.112 C 102.047 99.002 102.317 97.662 103.227 96.632 C 103.677 96.122 104.327 95.722 105.037 95.642 C 105.747 95.552 106.437 95.802 106.927 96.152 C 107.907 96.902 108.257 97.882 108.427 98.542 C 108.587 99.222 108.567 99.632 108.567 99.632 C 108.517 99.862 107.937 99.872 107.877 99.682 L 107.897 99.682 Z" style="fill: rgb(29, 29, 27);"/>
    <path class="cls-3" d="M 75.037 96.822 C 75.037 96.822 74.667 97.592 74.047 98.882 C 73.597 100.202 72.797 102.112 73.007 104.282 C 73.097 105.362 73.497 106.432 74.167 107.352 C 74.857 108.272 75.867 108.972 76.957 109.472 C 77.507 109.722 78.077 109.922 78.657 110.082 L 79.087 110.192 C 79.217 110.212 79.427 110.262 79.387 110.252 L 80.207 110.102 C 81.367 109.912 82.387 109.452 83.197 108.872 C 84.877 107.722 85.687 105.312 85.537 102.872 C 85.497 100.402 84.397 98.052 82.697 96.772 C 80.937 95.562 78.847 95.642 77.507 95.902 C 76.127 96.162 75.347 96.512 75.347 96.512 C 74.927 96.682 74.637 96.102 75.077 95.872 C 75.077 95.872 75.887 95.462 77.347 95.122 C 78.757 94.802 81.087 94.552 83.267 95.932 C 85.357 97.352 86.667 100.122 86.767 102.792 C 86.857 104.132 86.747 105.522 86.287 106.802 C 85.827 108.072 85.027 109.232 83.997 109.942 C 82.987 110.662 81.747 111.182 80.457 111.382 C 80.117 111.442 79.777 111.492 79.427 111.552 C 79.077 111.522 78.987 111.472 78.797 111.442 L 78.307 111.312 C 77.657 111.122 77.027 110.892 76.407 110.592 C 75.187 109.992 74.037 109.152 73.237 108.022 C 72.457 106.892 72.037 105.582 71.977 104.352 C 71.837 101.862 72.777 99.922 73.297 98.562 C 73.987 97.262 74.407 96.482 74.407 96.482 C 74.687 96.082 75.187 96.392 75.007 96.822 L 75.037 96.822 Z" style="fill: rgb(29, 29, 27);"/>
    <path class="cls-3" d="M 85.527 101.212 C 85.527 101.212 85.507 100.832 85.307 100.252 C 85.117 99.692 84.697 98.882 83.957 98.422 C 83.217 97.942 82.247 98.112 81.667 98.882 C 81.067 99.632 80.857 100.702 80.907 101.582 C 80.937 102.472 81.257 103.512 81.927 104.202 C 82.577 104.912 83.567 104.992 84.257 104.442 C 84.947 103.902 85.277 103.062 85.417 102.482 C 85.557 101.892 85.547 101.512 85.547 101.512 C 85.557 101.312 86.217 101.272 86.237 101.502 C 86.237 101.502 86.297 101.922 86.197 102.632 C 86.087 103.322 85.827 104.362 84.907 105.222 C 84.447 105.632 83.767 105.952 83.027 105.932 C 82.287 105.932 81.587 105.572 81.077 105.102 C 80.047 104.142 79.627 102.792 79.567 101.662 C 79.517 100.522 79.797 99.152 80.727 98.092 C 81.187 97.572 81.857 97.152 82.587 97.072 C 83.317 96.972 84.017 97.232 84.527 97.592 C 85.527 98.352 85.887 99.362 86.067 100.042 C 86.237 100.732 86.217 101.162 86.217 101.162 C 86.167 101.402 85.587 101.412 85.527 101.212 Z" style="fill: rgb(29, 29, 27);"/>
    <path class="cls-3" d="M 86.897 113.982 C 86.897 113.982 87.067 114.392 87.527 114.972 C 87.637 115.112 87.787 115.272 87.917 115.402 C 88.087 115.532 88.277 115.682 88.477 115.832 C 88.667 116.002 88.897 116.122 89.137 116.262 C 89.367 116.412 89.617 116.532 89.887 116.632 C 90.937 117.092 92.237 117.092 93.347 116.522 C 94.457 115.982 95.377 115.002 95.887 114.052 C 95.947 113.932 96.017 113.812 96.077 113.682 L 96.217 113.362 C 96.217 113.362 96.217 113.362 96.237 113.342 C 96.237 113.342 96.237 113.342 96.207 113.332 C 95.867 113.372 95.517 113.412 95.167 113.442 C 93.777 113.582 92.377 113.722 91.127 113.852 C 88.627 114.082 86.737 114.262 86.737 114.262 C 86.477 114.282 86.397 113.632 86.647 113.572 C 86.647 113.572 88.517 113.262 90.987 112.852 C 92.227 112.652 93.617 112.442 94.997 112.222 C 95.347 112.172 95.687 112.122 96.027 112.062 L 97.027 111.922 C 97.317 111.922 97.607 111.902 97.897 111.902 C 97.807 112.482 97.727 113.062 97.497 113.682 L 97.377 114.002 L 97.277 114.242 C 97.207 114.402 97.127 114.552 97.047 114.702 C 96.387 115.892 95.287 117.002 93.847 117.642 C 92.427 118.322 90.667 118.192 89.467 117.562 C 89.157 117.422 88.867 117.262 88.617 117.072 C 88.357 116.902 88.107 116.732 87.917 116.532 C 87.707 116.342 87.507 116.172 87.327 116.002 C 87.137 115.792 87.007 115.622 86.887 115.442 C 86.417 114.742 86.257 114.252 86.257 114.252 C 86.217 113.962 86.767 113.782 86.897 113.982 Z" style="fill: rgb(29, 29, 27);"/>
    <path class="cls-3" d="M 124.317 126.792 C 124.317 126.792 123.977 126.942 123.327 127.222 C 122.687 127.522 121.717 127.902 120.437 128.352 C 119.807 128.582 119.097 128.842 118.327 129.132 C 117.547 129.402 116.687 129.642 115.757 129.932 C 113.917 130.542 111.767 131.032 109.377 131.592 C 104.587 132.622 98.697 133.332 92.077 133.122 C 88.767 133.042 85.287 132.692 81.707 132.072 C 78.117 131.472 74.427 130.582 70.707 129.382 C 63.257 127.022 55.697 123.482 48.417 119.102 C 44.767 116.922 41.197 114.512 37.667 112.022 C 35.897 110.782 34.147 109.502 32.377 108.292 C 32.107 108.102 32.067 108.082 31.967 108.082 C 31.877 108.082 31.777 108.122 31.707 108.202 C 31.627 108.282 31.597 108.382 31.617 108.472 C 31.617 108.522 31.647 108.572 31.667 108.622 L 31.857 108.982 C 32.387 109.932 32.897 110.912 33.377 111.892 C 35.307 115.822 36.787 119.962 37.867 124.152 C 38.947 128.342 39.657 132.562 40.267 136.712 C 40.867 140.892 41.037 145.102 40.437 149.172 C 39.847 153.212 38.367 157.172 35.707 160.122 C 35.457 160.452 35.147 160.722 34.877 160.982 C 34.617 161.242 34.377 161.462 34.217 161.622 L 33.247 160.722 C 34.497 159.042 36.387 157.922 38.367 157.372 C 40.357 156.792 42.487 156.732 44.537 156.992 C 46.587 157.232 48.597 157.742 50.577 158.212 C 52.567 158.692 54.557 159.062 56.607 159.312 C 64.817 160.312 73.377 159.312 81.877 158.322 C 83.997 158.072 86.097 157.792 88.097 157.192 C 89.087 156.892 90.047 156.512 90.957 156.032 C 91.857 155.552 92.717 154.942 93.617 154.352 C 94.517 153.762 95.467 153.182 96.537 152.782 C 97.597 152.392 98.727 152.202 99.827 152.162 C 102.037 152.082 104.157 152.512 106.197 152.892 C 110.297 153.662 114.337 154.432 118.297 155.172 C 122.247 155.922 126.097 156.682 129.867 156.772 C 133.617 156.892 137.277 156.252 140.347 154.622 C 141.877 153.822 143.247 152.812 144.357 151.602 C 144.907 151.002 145.407 150.362 145.807 149.672 C 146.067 149.282 146.127 149.142 146.047 148.902 C 146.007 148.792 145.937 148.702 145.847 148.642 C 145.757 148.582 145.657 148.562 145.427 148.492 C 139.047 146.822 134.277 142.962 131.347 139.142 C 130.597 138.192 129.987 137.222 129.437 136.272 C 128.897 135.292 128.577 134.272 128.437 133.302 C 128.157 131.362 128.437 129.702 128.667 128.412 C 128.907 127.122 129.137 126.102 129.047 125.562 C 128.977 125.112 128.657 125.252 128.657 125.212 C 128.007 125.222 127.397 125.472 127.027 125.542 C 126.647 125.642 126.437 125.642 126.407 125.562 C 126.377 125.482 126.537 125.322 126.887 125.102 C 127.257 124.912 127.757 124.562 128.707 124.532 C 128.707 124.542 128.807 124.512 129.067 124.592 C 129.317 124.642 129.687 124.982 129.737 125.432 C 129.867 126.272 129.597 127.252 129.377 128.532 C 129.157 129.802 128.907 131.392 129.177 133.182 C 129.317 134.072 129.607 135.002 130.107 135.892 C 130.637 136.792 131.247 137.742 131.977 138.652 C 134.837 142.332 139.487 146.042 145.657 147.622 C 145.807 147.672 146.117 147.722 146.367 147.902 C 146.607 148.072 146.797 148.312 146.897 148.592 C 146.997 148.872 147.007 149.182 146.917 149.472 C 146.817 149.792 146.687 149.932 146.587 150.122 C 146.157 150.862 145.617 151.552 145.037 152.202 C 143.857 153.502 142.397 154.582 140.797 155.432 C 137.577 157.172 133.717 157.852 129.867 157.752 C 125.987 157.672 122.077 156.922 118.127 156.192 C 114.167 155.462 110.127 154.722 106.027 153.972 C 103.977 153.602 101.927 153.202 99.907 153.292 C 98.897 153.332 97.907 153.512 96.977 153.852 C 96.047 154.202 95.177 154.732 94.297 155.322 C 93.417 155.902 92.537 156.532 91.557 157.072 C 90.577 157.602 89.537 158.022 88.487 158.342 C 86.377 158.982 84.207 159.282 82.067 159.542 C 73.567 160.562 64.917 161.602 56.507 160.602 C 54.417 160.352 52.337 159.972 50.337 159.492 C 48.337 159.022 46.377 158.532 44.437 158.312 C 42.497 158.072 40.577 158.142 38.787 158.662 C 37.007 159.162 35.407 160.142 34.367 161.532 L 33.397 160.632 C 33.547 160.492 33.757 160.282 33.997 160.042 C 34.237 159.802 34.527 159.552 34.757 159.252 C 37.197 156.552 38.597 152.862 39.177 148.992 C 39.757 145.102 39.607 141.012 39.027 136.912 C 38.437 132.782 37.737 128.602 36.687 124.482 C 35.637 120.362 34.197 116.312 32.327 112.452 C 31.857 111.492 31.367 110.532 30.847 109.592 L 30.657 109.232 C 30.557 109.042 30.487 108.842 30.467 108.622 C 30.417 108.172 30.577 107.712 30.877 107.402 C 31.167 107.082 31.607 106.882 32.057 106.902 C 32.517 106.892 32.947 107.212 33.107 107.322 C 34.907 108.562 36.647 109.842 38.407 111.082 C 41.917 113.572 45.447 115.982 49.057 118.162 C 56.257 122.542 63.717 126.082 71.067 128.452 C 74.737 129.652 78.377 130.562 81.927 131.162 C 85.467 131.792 88.897 132.162 92.167 132.252 C 98.697 132.492 104.527 131.842 109.277 130.842 C 111.647 130.312 113.777 129.832 115.607 129.242 C 116.517 128.962 117.377 128.732 118.157 128.462 C 118.927 128.182 119.627 127.932 120.257 127.702 C 121.517 127.262 122.487 126.892 123.127 126.602 C 123.777 126.332 124.107 126.182 124.107 126.182 C 127.077 124.992 127.287 125.522 124.377 126.812 L 124.317 126.792 Z" style="fill: rgb(29, 29, 27);"/>
    <path class="cls-3" d="M 67.387 133.832 C 67.387 133.832 66.727 133.732 65.637 133.522 C 65.097 133.382 64.457 133.212 63.737 133.032 C 63.037 132.792 62.237 132.562 61.417 132.242 C 59.777 131.612 57.967 130.822 56.237 129.902 C 55.357 129.472 54.527 128.962 53.697 128.502 C 52.897 128.012 52.117 127.532 51.387 127.082 C 49.957 126.142 48.367 125.042 46.817 123.852 C 45.257 122.682 43.747 121.432 42.417 120.302 C 41.097 119.162 39.967 118.132 39.167 117.382 C 38.377 116.622 37.907 116.162 37.907 116.162 C 37.647 115.902 38.097 115.442 38.377 115.662 C 38.377 115.662 38.877 116.092 39.697 116.802 C 40.527 117.502 41.697 118.472 43.067 119.532 C 44.437 120.592 45.977 121.772 47.557 122.872 C 49.117 123.992 50.717 125.052 52.127 125.972 C 52.837 126.422 53.597 126.892 54.377 127.392 C 55.177 127.852 55.987 128.382 56.827 128.822 C 58.497 129.772 60.227 130.622 61.797 131.312 C 62.587 131.662 63.347 131.922 64.017 132.192 C 64.707 132.412 65.327 132.602 65.837 132.772 C 66.877 133.022 67.507 133.172 67.507 133.172 C 67.837 133.312 67.757 133.882 67.397 133.852 L 67.387 133.832 Z" style="fill: rgb(29, 29, 27);"/>
    <path class="cls-3" d="M 70.527 149.132 C 70.527 149.132 68.657 147.812 66.197 146.072 C 63.747 144.302 60.737 142.052 58.447 140.212 C 56.157 138.372 53.307 135.922 51.047 133.912 C 48.817 131.882 47.117 130.342 47.117 130.342 C 46.887 130.122 47.327 129.642 47.567 129.822 C 47.567 129.822 54.697 135.512 59.267 139.172 C 63.827 142.852 70.927 148.572 70.927 148.572 C 71.137 148.812 70.787 149.272 70.517 149.122 L 70.527 149.132 Z" style="fill: rgb(29, 29, 27);"/>
    <path class="cls-3" d="M 50.797 140.272 C 50.797 140.272 50.357 139.882 49.717 139.102 C 49.077 138.322 48.247 137.162 47.327 135.712 C 46.407 134.262 45.397 132.532 44.357 130.652 C 43.337 128.762 42.247 126.742 41.147 124.712 L 42.277 124.142 C 42.437 124.492 42.737 125.082 43.027 125.802 C 43.337 126.522 43.647 127.352 43.937 128.152 C 45.437 132.352 46.757 137.882 47.407 142.392 C 47.567 143.522 47.697 144.582 47.777 145.552 C 47.877 146.512 47.907 147.372 47.937 148.092 C 47.977 149.532 47.897 150.402 47.897 150.402 C 47.867 150.882 47.227 150.822 47.207 150.372 C 47.207 150.372 47.237 149.532 47.147 148.122 C 47.087 147.422 47.027 146.582 46.897 145.642 C 46.777 144.702 46.607 143.662 46.417 142.552 C 45.627 138.122 44.157 132.702 42.687 128.592 C 42.407 127.812 42.107 126.992 41.817 126.302 C 41.547 125.602 41.267 125.022 41.137 124.682 L 42.267 124.112 C 43.317 126.172 44.367 128.222 45.337 130.132 C 46.317 132.032 47.257 133.782 48.107 135.242 C 48.957 136.702 49.727 137.872 50.317 138.642 C 50.907 139.412 51.287 139.792 51.287 139.792 C 51.557 140.152 51.187 140.592 50.807 140.282 L 50.797 140.272 Z" style="fill: rgb(29, 29, 27);"/>
    <path class="cls-3" d="M 135.527 149.312 C 135.527 149.312 135.077 149.232 134.357 149.032 C 133.637 148.832 132.627 148.492 131.537 147.972 C 130.447 147.452 129.287 146.732 128.227 145.892 C 127.177 145.042 126.237 144.062 125.517 143.122 C 124.807 142.172 124.107 141.002 123.577 139.762 C 123.047 138.512 122.657 137.212 122.457 136.022 C 122.247 134.832 122.187 133.772 122.187 133.022 C 122.187 132.272 122.237 131.812 122.237 131.812 C 122.257 131.562 122.907 131.602 122.927 131.832 C 122.927 131.832 122.887 133.592 123.447 135.802 C 123.717 136.912 124.157 138.112 124.697 139.252 C 125.247 140.382 125.927 141.442 126.587 142.312 C 127.247 143.182 128.087 144.112 129.027 144.952 C 129.977 145.782 131.017 146.532 132.007 147.082 C 133.987 148.212 135.697 148.652 135.697 148.652 C 135.907 148.772 135.777 149.342 135.537 149.322 L 135.527 149.312 Z" style="fill: rgb(29, 29, 27);"/>
    <path class="cls-3" d="M 133.967 151.712 C 133.967 151.712 133.847 151.782 133.617 151.922 C 133.387 152.042 133.067 152.272 132.627 152.472 C 132.177 152.632 131.647 152.902 131.027 153.072 C 130.397 153.222 129.707 153.442 128.937 153.502 C 128.177 153.632 127.367 153.652 126.537 153.662 C 125.707 153.662 124.857 153.602 124.017 153.512 C 122.337 153.312 120.697 152.962 119.287 152.552 C 117.877 152.162 116.307 151.582 114.767 150.952 C 113.237 150.292 111.717 149.582 110.397 148.892 C 107.747 147.512 105.847 146.302 105.847 146.302 C 105.587 146.132 105.917 145.582 106.187 145.712 C 106.187 145.712 108.147 146.782 110.827 147.992 C 112.167 148.612 113.687 149.232 115.217 149.822 C 116.757 150.382 118.287 150.902 119.657 151.282 C 121.017 151.682 122.587 152.052 124.177 152.312 C 124.977 152.432 125.777 152.522 126.557 152.562 C 127.337 152.592 128.107 152.612 128.817 152.532 C 129.537 152.512 130.187 152.342 130.787 152.242 C 131.377 152.122 131.877 151.902 132.307 151.782 C 132.727 151.632 133.027 151.432 133.257 151.332 C 133.477 151.222 133.597 151.162 133.597 151.162 C 133.887 151.082 134.207 151.562 133.957 151.742 L 133.967 151.712 Z" style="fill: rgb(29, 29, 27);"/>
    <path class="cls-3" d="M 77.937 157.072 C 77.937 157.072 77.507 157.022 76.797 156.932 C 76.087 156.832 75.097 156.662 73.967 156.422 C 71.727 155.932 68.997 155.002 66.977 154.032 C 64.947 153.062 62.527 151.522 60.737 150.082 C 59.837 149.362 59.097 148.692 58.567 148.202 C 58.057 147.702 57.747 147.402 57.747 147.402 C 57.577 147.232 58.027 146.762 58.217 146.902 C 58.217 146.902 58.547 147.172 59.087 147.622 C 59.637 148.052 60.427 148.652 61.337 149.292 C 63.167 150.572 65.597 151.922 67.557 152.852 C 69.507 153.792 72.077 154.842 74.227 155.472 C 75.297 155.792 76.257 156.022 76.937 156.182 C 77.627 156.322 78.037 156.412 78.037 156.412 C 78.257 156.512 78.177 157.082 77.937 157.092 L 77.937 157.072 Z" style="fill: rgb(29, 29, 27);"/>
    <path class="cls-3" d="M 122.597 129.212 C 122.597 129.212 121.887 129.692 120.667 130.462 C 120.047 130.822 119.297 131.242 118.467 131.722 C 117.607 132.152 116.667 132.672 115.627 133.132 C 113.557 134.092 111.177 135.042 108.747 135.792 C 107.537 136.192 106.297 136.482 105.117 136.812 C 103.907 137.052 102.747 137.342 101.647 137.502 C 100.537 137.642 99.367 137.872 98.137 137.922 C 97.517 137.962 96.897 138.012 96.267 138.052 C 95.637 138.052 94.997 138.052 94.357 138.052 C 93.077 138.092 91.797 137.932 90.547 137.842 C 89.307 137.682 88.097 137.482 86.977 137.252 C 85.867 136.932 84.807 136.742 83.907 136.372 C 82.997 136.012 82.177 135.742 81.527 135.442 C 80.247 134.782 79.477 134.382 79.477 134.382 C 79.057 134.152 79.397 133.602 79.807 133.782 C 79.807 133.782 80.567 134.132 81.837 134.722 C 82.477 134.992 83.287 135.222 84.177 135.532 C 85.057 135.852 86.107 136.002 87.177 136.272 C 88.267 136.462 89.447 136.612 90.647 136.732 C 91.857 136.772 93.097 136.902 94.347 136.832 C 94.967 136.812 95.587 136.802 96.197 136.782 C 96.807 136.722 97.417 136.672 98.017 136.622 C 99.217 136.552 100.357 136.322 101.437 136.182 C 102.517 136.032 103.647 135.762 104.827 135.542 C 105.987 135.242 107.207 134.982 108.397 134.622 C 110.797 133.942 113.157 133.082 115.227 132.212 C 116.267 131.792 117.207 131.312 118.067 130.932 C 118.907 130.492 119.657 130.102 120.277 129.782 C 121.497 129.082 122.217 128.642 122.217 128.642 C 122.647 128.452 122.967 128.932 122.597 129.212 Z" style="fill: rgb(29, 29, 27);"/>
  </g>
</svg>
