<?xml version="1.0" encoding="UTF-8"?>
<svg id="Layer_1" xmlns="http://www.w3.org/2000/svg" xmlns:xlink="http://www.w3.org/1999/xlink" version="1.1" viewBox="0 0 743.7 885.6">
  <!-- Generator: Adobe Illustrator 29.7.1, SVG Export Plug-In . SVG Version: 2.1.1 Build 8)  -->
  <defs>
    <style>
      .st0, .st1 {
        fill: #372b2f;
      }

      .st2 {
        fill: #fff;
      }

      .st2, .st3, .st1, .st4, .st5 {
        fill-rule: evenodd;
      }

      .st6, .st4 {
        fill: #faca2a;
      }

      .st3, .st7 {
        fill: #fdffff;
      }

      .st5 {
        fill: #ad160c;
      }

      .st7 {
        clip-rule: evenodd;
      }

      .st8 {
        clip-path: url(#clippath);
      }
    </style>
    <clipPath id="clippath">
      <path class="st7" d="M403.5,198.9c36.7,0,66.4,34.6,66.4,34.6,0,0-29.8,34.6-66.4,34.6s-66.4-34.6-66.4-34.6c0,0,29.8-34.6,66.4-34.6Z"/>
    </clipPath>
  </defs>
  <path class="st1" d="M743.7,371.9c0-98.6-39.2-193.2-108.9-262.9C565.1,39.2,470.5,0,371.9,0h0c-98.6,0-193.2,39.2-262.9,108.9C39.2,178.6,0,273.2,0,371.9v513.1h743.7V371.9Z"/>
  <rect class="st6" x="305" y="233.5" width="172.8" height="112.6"/>
  <polygon class="st4" points="233.8 382.5 360.8 318.2 360.8 202.4 201.6 285.9 233.8 382.5"/>
  <path class="st4" d="M403.5,141.9c54.4,0,98.5,39.1,98.5,87.4s-44.2,87.4-98.5,87.4-98.5-39.1-98.5-87.4.3-7.6.8-11.4c1-7.1,6.5-3.8,9.3-10.2s-.6-16,1-18.8c16.5-27.9,49.4-47,87.4-47Z"/>
  <g>
    <path class="st3" d="M403.5,198.9c36.7,0,66.4,34.6,66.4,34.6,0,0-29.8,34.6-66.4,34.6s-66.4-34.6-66.4-34.6c0,0,29.8-34.6,66.4-34.6Z"/>
    <g class="st8">
      <path class="st1" d="M431.7,223.4c13.4,0,24.3,10.1,24.3,22.6s-10.9,22.6-24.3,22.6-24.3-10.1-24.3-22.6,10.9-22.6,24.3-22.6Z"/>
    </g>
  </g>
  <polygon class="st4" points="502.1 233.5 502.1 298.8 403.5 298.8 502.1 233.5"/>
  <path class="st2" d="M491.2,198.1c-5.8-12.2-17.3-33.1-33.7-38.8s-30.1,4.7-46.4,6.3-32.4-5.5-46.8,1.8c-12.8,6.5-18.3,24.5-29.5,36.5s-19.2,16.2-26.6,31c-.7,1.1-10.4,1.5-10.4.2s1.2-4,1.2-5.3,0-4,0-5.2c.1-9.5,11.7-9.3,11.8-18.9s-11.4-9.7-11.2-19.2,11.7-9.3,11.8-18.9c.2-9.5-11.4-10.7-11.2-20.2.2-9.5.3-9.5,8.7-13.8,16.3-8.5,15.7-11,34.1-11.1s18.5,11.4,36.9,11.3,18.3-11.6,36.7-11.8c18.4-.1,18.5,11.4,36.9,11.3s21.2-17.4,38.6-11.4-7.6,11.9-7.6,18.3,11.5,7.4,11.5,13.8-11.5,6.4-11.5,12.8,9.9,5.3,11.4,11.6c2.3,9.9,1.4,19.2-5,19.9Z"/>
  <path class="st2" d="M472.4,300.7c-14.3,6.2-25,1.2-42.5,1.3s-32.7,9.6-49.8,6.1c-15.3-3.1-34.2-17-50.5-22.2-7.8,8.7,10,15.5,10,27.2,0,11.7-11.5,11.7-11.5,23.3s8.4,10.6,11.3,21.9-5.4,12.1-.4,19.5,14.6,1,19.5,8.4-5.1,15.4,1,22c8.9,9.7,16.6-2.6,29.6,4.3,7.3,3.8,10.9,18.3,19.2,21.4s20-5.4,27.6-5.4,9.6,11.5,13.9,11.5,9.9-11.5,13.9-11.5c8.6,0,18.8,13.3,19.6,6.4,2.6-22.4-11.5-23.2-11.5-45.8,0-22.6,10.7-22.4,11.5-44.9.8-21.9-3.4-22.2-11.2-43.4Z"/>
  <polygon class="st5" points="279.5 335 369.3 621.3 642.1 645 708.1 885.6 0 885.6 1.7 451.9 155.9 274 221.9 274 279.5 335"/>
  <polygon class="st2" points="699.7 590.8 627 562.9 644 416.9 723.4 390.9 699.7 590.8"/>
  <polygon class="st1" points="635.3 551.8 649.4 427 713.8 409 695.2 572.2 635.3 551.8"/>
  <polygon class="st2" points="697.6 602.2 617.6 566.7 477.6 586.8 540.4 708.5 697.6 602.2"/>
  <g>
    <polygon class="st0" points="662.4 615.4 602 581.2 613 576.4 672 608.3 662.4 615.4"/>
    <polygon class="st0" points="644.7 627.1 586.6 588.1 597.6 583.3 654.7 619.8 644.7 627.1"/>
    <polygon class="st0" points="627 638.8 571.1 595 582.2 590.2 637.4 631.2 627 638.8"/>
    <polygon class="st0" points="609.4 650.4 555.7 601.9 566.7 597.1 620.2 642.7 609.4 650.4"/>
    <polygon class="st0" points="591.7 662.1 540.3 608.8 551.3 604 602.9 654.2 591.7 662.1"/>
    <polygon class="st0" points="574 673.8 524.9 615.7 535.9 610.9 585.6 665.6 574 673.8"/>
  </g>
  <g>
    <polygon class="st1" points="261.1 777.1 281.3 717.7 468.3 528.6 614.2 528.6 614.2 552.9 608 555.9 614.2 558.9 614.2 580.5 608 584.5 614.2 587.2 614.2 607 608 610.9 614.2 613.4 614.2 638 512 638 393.9 821.3 293.4 821.3 261.1 777.1"/>
    <polygon class="st4" points="614.2 564.6 482.8 521.4 281.3 717.7 261.1 777.1 293.4 821.3 393.9 821.3 510.8 601.8 604.6 634.6 606.2 622.4 559.9 599.2 607 617.2 608.7 604.4 559.9 579.8 609.5 598.7 611.2 586.3 559.9 560.2 611.9 581 614.2 564.6"/>
  </g>
</svg>