<?xml version="1.0" encoding="UTF-8"?>
<svg xmlns="http://www.w3.org/2000/svg" viewBox="0 0 200 25" width="200" height="25">
  <!-- SYMPOSIUM text for dark backgrounds (light text) -->
  <g fill="#ffffff" transform="translate(-16, -7) scale(0.75, 0.5)">
    <path d="M25.47,50.37l10.13,1.57c.69-3.23.59-6.95.05-9.54l-10.42-5.43c-.2-4.31-.15-8.07.69-10.86,1.17-1.76,2.84-3.38,4.55-4.75l8.71,1.17-1.61,3.57-8.27-1.22c-.88,3.13-.83,6.51-.59,8.76l10.28,5.04c.68,4.55.59,8.42-.34,11.79-1.17,1.91-2.84,3.77-4.26,5.14l-10.33-1.37,1.42-3.87Z"/>
    <path d="M56.74,42.93v11.94h-3.91v-9.84l-5.58-19.43-3.52-1.13,2.06-3.13,4.94,1.71,4.4,15.71v2.64l4.84-16.93,2.94-3.13,4.06,1.32-2.01,3.28-3.08-1.03-5.14,18.01Z"/>
    <path d="M92.95,54.87h-3.96v-27.65l.64-1.12-5.14-1.13-5.38,8.07v21.83h-3.92v-29.26l-3.47-1.13,2.1-3.13,5.29,1.81v6.9l5.77-8.71,8.08,1.81v6.9l5.77-8.71,8.03,1.81v28.19l3.47,1.13-2.1,3.13-5.28-1.76v-26.62l.64-1.12-5.14-1.13-5.38,8.07v21.83Z"/>
    <path d="M123.29,42.4v12.48h-4.01v-29.9l-4.16-.34,1.86-3.28,16.05,1.27c1.81,4.01,2.25,10.42,1.71,14.53l-11.45,5.24ZM123.29,40.05l7.68-3.47c.29-3.08-.2-8.07-1.03-10.72l-8.07-.78,1.42,1.76v13.21Z"/>
    <path d="M161.12,22.48c1.52,4.31,2.64,9.1,2.69,15.56,0,2.84-.34,6.56-.98,10.03-2.06,3.13-4.5,5.87-7.29,7.54l-9.59-1.17c-1.76-4.75-2.69-10.03-2.69-16.15,0-2.5.34-5.38.98-9.05,1.81-3.08,3.92-5.77,7.49-7.88l9.4,1.13ZM150.35,25.02c-2.69.93-3.33,5.48-3.33,9.69,0,5.68.78,10.47,1.91,14.24l-.39,1.91,9.05.93c1.81-1.86,2.64-4.6,2.64-10.47,0-5.09-.59-9-1.86-13.02l.15-2.3-8.17-.98Z"/>
    <path d="M172.42,50.37l10.13,1.57c.69-3.23.59-6.95.05-9.54l-10.42-5.43c-.2-4.31-.15-8.07.69-10.86,1.17-1.76,2.84-3.38,4.55-4.75l8.71,1.17-1.61,3.57-8.27-1.22c-.88,3.13-.83,6.51-.59,8.76l10.28,5.04c.68,4.55.59,8.42-.34,11.79-1.17,1.91-2.84,3.77-4.26,5.14l-10.33-1.37,1.42-3.87Z"/>
    <path d="M192.93,24.48l2.1-3.13,5.29,1.81v31.71h-3.92v-29.26l-3.47-1.13Z"/>
    <path d="M235.01,52.48l-2.1,3.13-5.68-1.91v-3.38l.98-5.97-7.1,11.26-9.05-2.25.49-27.75-3.47-1.13,2.1-3.13,5.33,1.76-.49,27.31,5.29,1.32,5.92-9.4v-20.26h3.91v29.12l3.87,1.27Z"/>
    <path d="M261.43,54.87h-3.96v-27.65l.64-1.12-5.14-1.13-5.38,8.07v21.83h-3.92v-29.26l-3.47-1.13,2.1-3.13,5.29,1.81v6.9l5.77-8.71,8.08,1.81v6.9l5.77-8.71,8.03,1.81v28.19l3.47,1.13-2.1,3.13-5.28-1.76v-26.62l.64-1.12-5.14-1.13-5.38,8.07v21.83Z"/>
  </g>
</svg>
