<?xml version="1.0" encoding="UTF-8"?><svg id="Layer_2" xmlns="http://www.w3.org/2000/svg" viewBox="0 0 59.29 88.21"><defs><style>.cls-1{fill:#1d1d1b;}.cls-2{fill:#fff;}.cls-3{fill:#f1e2df;}.cls-4{fill:#f74c00;}</style></defs><path class="cls-1" d="M58.82,40.45c-.21-1.02-.44-2.03-.7-3.03-.09-.33-.18-.65-.26-.98-.02-.06-.01-.13-.08-.17-.02-.16-.03-.33-.07-.48-.18-.71-.42-1.4-.73-2.07-.05-.11-.07-.24-.2-.3,0-.08,0-.15-.04-.23-.1-.25-.22-.51-.31-.77-.13-.41-.36-.78-.42-1.21-.04,0-.08-.01-.12-.02.04,0,.08.01.12.02.06-.99.11-1.99.2-2.98.12-1.37.25-2.74.37-4.11.11-1.24.21-2.47.31-3.71.08-.97.16-1.94.14-2.91-.03-1.62-.19-3.21-.78-4.74-.44-1.14-1.05-2.18-1.9-3.05-1.03-1.05-2.22-1.87-3.53-2.52-.7-.35-1.46-.5-2.24-.5-.91,0-1.77.25-2.59.63-1.08.51-2.08,1.14-2.92,2-.14.14-.27.29-.44.4-.05-.15-.07-.28-.07-.42,0-.29,0-.58-.03-.87-.06-.57-.05-1.14-.06-1.71,0-.15.05-.21.2-.24.58-.1,1.16-.22,1.74-.34.91-.17,1.78-.44,2.57-.93.29-.18.55-.38.75-.66.23-.32.3-.67.18-1.05-.14-.47-.42-.83-.8-1.13-.4-.31-.85-.54-1.32-.73-1.15-.47-2.34-.74-3.57-.87-.91-.1-1.82-.2-2.73-.3-1.14-.12-2.29-.27-3.44-.36-1.83-.15-3.67-.12-5.5-.04-1.2.05-2.39.19-3.58.28-1.93.14-3.86.21-5.78.48-1.42.2-2.85.23-4.27.39-1.04.12-1.98.41-2.86.97-.44.28-.81.63-1.12,1.05-.28.36-.36.76-.27,1.2.08.43.26.81.57,1.12.27.27.56.51.89.71.04,0,.07.01.08.05.02,0,.03.01.05.02.04,0,.07,0,.08.05,0,0,0,0,0,0,.22.03.4.17.59.29-.36-.07-.71-.15-1.07-.22-.07,0-.13-.01-.2-.02-.72,0-1.44,0-2.15,0-.07,0-.14,0-.21.01-.11.05-.22.07-.33.05-.03,0-.05,0-.08.01-.08.05-.17.07-.26.05-1.36.31-2.5,1.03-3.48,1.99-1.48,1.44-2.25,3.25-2.56,5.28-.29,1.93-.21,3.86-.04,5.79.14,1.53.43,3.03.68,4.54.18,1.09.37,2.18.52,3.28,0,.18-.08.32-.17.46-.42.61-.81,1.23-1.17,1.87-.42.75-.85,1.49-1.26,2.24-.4.74-.77,1.48-1.1,2.26-.54,1.3-.93,2.65-1.27,4.01-.13.52-.27,1.03-.29,1.57-.1.09-.14.19-.09.32-.01.06-.02.12-.03.17-.05.04-.06.08-.02.13-.02.11-.04.22-.05.34-.05.04-.06.08-.01.13-.02.11-.03.22-.05.34-.06.06-.08.13-.02.2-.02.13-.03.27-.05.4-.06.06-.07.13-.02.2-.02.16-.03.31-.05.47-.07.09-.08.17-.02.27-.02.2-.03.4-.05.61.05.09.03.18-.01.27-.05.74-.05,1.48,0,2.22.05.11.07.22.02.33.02.18.03.36.05.54.04.04.05.09.01.13.02.13.04.27.05.4.05.06.07.13.02.2.02.09.03.18.05.27.04.04.05.08.02.13l.05.27s.06.08.02.13c.02.09.04.18.05.27.04.05.05.1.02.15.01.06.03.12.04.18.04.05.05.1.03.15.01.06.03.12.04.18.04.04.06.09.03.15.03.15.07.3.1.45.04.04.06.09.03.15.01.04.02.08.03.12.04.04.05.1.03.15l.11.45s.06.09.03.15c.01.04.02.08.03.12.04.04.06.09.03.15.01.04.02.08.03.12.04.04.05.09.03.15.1.42.21.84.31,1.26.04.04.06.09.03.15.01.04.02.08.03.12.04.04.06.09.03.15.01.04.02.08.03.12.04.04.06.09.03.15.01.04.02.08.03.12.04.04.06.09.04.15.05.19.1.37.16.56.05.05.07.11.04.18.03.1.06.19.09.29.05.05.07.11.05.18.07.23.15.46.22.69.08.11.12.24.12.38.12.34.23.69.35,1.03.05.05.08.1.06.18l.13.36c.06.04.08.1.07.17.07.18.14.35.21.53.98,2.47,2.21,4.81,3.48,7.14.68,1.25,1.36,2.49,2.18,3.65.08.11.15.22.23.33.3.43.59.86.92,1.27.59.73,1.2,1.44,1.8,2.15.71.83,1.46,1.63,2.19,2.43.79.86,1.68,1.6,2.55,2.37.56.49,1.13.97,1.69,1.46.15.11.3.22.45.34.44.33.87.67,1.31.99.23.17.24.17.14.44-.61,1.57-.95,3.19-1,4.87,0,.13,0,.27.02.4.06.26.2.43.47.45.1.01.19.05.28.09.34.17.71.26,1.09.34.3.06.59.11.89.18,1.73.41,3.47.75,5.25.91,2.55.24,5.09.23,7.63-.15,2.17-.33,4.32-.72,6.42-1.37.68-.21,1.36-.44,2.07-.56.48-.08.8-.33.97-.77.27-.68.41-1.39.32-2.13-.18-1.53-.48-3.02-1.11-4.44-.08-.18-.03-.28.09-.41.43-.46.84-.93,1.26-1.39.29-.23.48-.55.72-.83.65-.76,1.29-1.54,1.89-2.35.71-.96,1.42-1.92,2.11-2.89.43-.6.9-1.17,1.24-1.82.13-.26.28-.51.43-.75.29-.46.59-.92.88-1.39.05-.08.1-.15.1-.25.07-.05.12-.13.17-.21,2.09-3.47,3.9-7.07,5.18-10.92.82-2.49,1.52-5.01,1.8-7.63.26-2.47.16-4.91-.33-7.35ZM40.64,80.21c-.44.14-.87.28-1.31.41-.96.29-1.92.57-2.91.77-.75.15-1.5.19-2.26.23-.51.03-1.01.06-1.52.09-.75.05-1.49-.02-2.23-.11-.62-.07-1.24-.1-1.86-.14-.88-.05-1.75-.1-2.63-.12-.39,0-.78.02-1.17,0-.27,0-.54-.03-.81-.11h0c-.5-.14-1-.27-1.49-.42-.15-.04-.25-.16-.34-.33.69.18,1.37.25,2.06.31.39.04.79.05,1.17,0,.79-.09,1.59-.1,2.38-.07.36.02.73.02,1.1.02.84,0,1.67.09,2.5.12.88.04,1.75.04,2.62-.14.38.07.74-.11,1.11-.05.05,0,.12.02.17,0,.35-.16.73-.15,1.1-.15.05,0,.1-.04.15-.06.07-.02.16-.06.22-.05.56.13,1.08-.08,1.61-.17.59-.09,1.17-.21,1.74-.4.29-.09.59-.08.91-.03-.02.22-.17.3-.34.36ZM42.58,65.21s-.08.04-.11.04c.04,0,.08-.03.11-.04ZM43.09,82.79c-.11.55-.27,1.08-.54,1.58-.07.13-.13.28-.3.36-.08-.14-.02-.23.02-.32.21-.47.35-.96.43-1.46.1-.6.12-1.2-.18-1.76-.03-.05-.04-.1-.06-.15,0,0,0-.02.01-.06.19.02.33.06.42.28.21.5.3.99.19,1.53ZM47.19,64.39s0-.05,0-.07c.06.03.01.05,0,.07Z"/><path class="cls-4" d="M14.36,6.39c.22.03.4.17.59.29-.36-.07-.71-.15-1.07-.22.11-.06.21.01.32,0,.07,0,.13.01.16-.07Z"/><path class="cls-4" d="M13.68,6.44c-.72,0-1.44,0-2.15,0,.06-.06.14-.05.22-.05.58,0,1.16,0,1.74,0,.07,0,.14,0,.19.05Z"/><path class="cls-4" d="M.04,45.94c.05.11.07.22.02.33-.07-.11-.08-.22-.02-.33Z"/><path class="cls-4" d="M2.11,55.58c.08.11.12.24.12.38-.1-.11-.14-.23-.12-.38Z"/><path class="cls-4" d="M.06,43.46c.05.09.03.18-.01.27-.06-.09-.05-.18.01-.27Z"/><path class="cls-4" d="M.18,47.35c.05.06.07.13.02.2-.06-.06-.08-.13-.02-.2Z"/><path class="cls-4" d="M11.32,6.47c-.11.05-.22.07-.33.05.1-.08.22-.07.33-.05Z"/><path class="cls-4" d="M1.45,53.26s.06.09.03.15c-.05-.04-.09-.09-.03-.15Z"/><path class="cls-4" d="M1.52,53.53s.06.09.04.15c-.06-.04-.09-.09-.04-.15Z"/><path class="cls-4" d="M1.71,54.24c.05.05.07.11.04.18-.06-.05-.08-.11-.04-.18Z"/><path class="cls-4" d="M1.84,54.71c.05.05.07.11.05.18-.06-.05-.08-.1-.05-.18Z"/><path class="cls-4" d="M1.38,52.99s.06.09.03.15c-.05-.04-.09-.09-.03-.15Z"/><path class="cls-4" d="M2.57,56.99c.05.05.08.1.06.18-.07-.04-.09-.1-.06-.18Z"/><path class="cls-4" d="M2.77,57.53c.06.04.08.1.07.17-.07-.04-.09-.1-.07-.17Z"/><path class="cls-4" d="M1.32,52.72s.06.09.03.15c-.06-.04-.08-.09-.03-.15Z"/><path class="cls-4" d="M.11,46.81s.05.09.01.13c-.05-.04-.06-.08-.01-.13Z"/><path class="cls-4" d="M10.91,6.53c-.08.05-.17.07-.26.05.07-.08.17-.07.26-.05Z"/><path class="cls-4" d="M.24,47.82s.05.08.02.13c-.05-.04-.07-.08-.02-.13Z"/><path class="cls-4" d="M.31,48.22s.06.08.02.13c-.05-.04-.07-.08-.02-.13Z"/><path class="cls-4" d="M.38,48.63s.05.1.02.15c-.05-.04-.08-.09-.02-.15Z"/><path class="cls-4" d="M.45,48.96s.05.1.03.15c-.05-.04-.08-.09-.03-.15Z"/><path class="cls-4" d="M.51,49.3s.06.09.03.15c-.05-.04-.08-.09-.03-.15Z"/><path class="cls-4" d="M.65,49.9s.06.09.03.15c-.05-.04-.08-.09-.03-.15Z"/><path class="cls-4" d="M.98,51.31s.05.09.03.15c-.05-.04-.09-.09-.03-.15Z"/><path class="cls-4" d="M.91,51.04s.06.09.03.15c-.05-.04-.09-.09-.03-.15Z"/><path class="cls-4" d="M.85,50.77s.06.09.03.15c-.06-.04-.08-.09-.03-.15Z"/><path class="cls-4" d="M.71,50.17s.05.1.03.15c-.05-.04-.09-.09-.03-.15Z"/><path class="cls-4" d="M14.14,6.27s.07.01.08.05c-.04,0-.07-.01-.08-.05Z"/><path class="cls-4" d="M14.28,6.34s.07,0,.08.05c-.04,0-.07,0-.08-.05Z"/><polygon class="cls-1" points="51.41 9.55 51.41 9.55 51.41 9.56 51.41 9.55"/><path class="cls-1" d="M54.74,22.05s-.08.08-.13.1c-.15.07-.24.03-.29-.14-.06-.21-.06-.43-.02-.64.08,0,.04.11.11.1.06-.01.1-.08.07-.13-.11-.22.08-.31.18-.41.11-.11.22.03.3.09.07.05.08.15.08.24-.01.3-.15.55-.3.8Z"/><path class="cls-1" d="M54.74,23.51s.02.09-.02.11c-.02.01-.07.02-.09,0-.38-.19-.44-.74-.1-1.09.1.17.11.35.1.51,0,.17-.06.33.1.46Z"/><path class="cls-1" d="M49.53,8.35c.79-.03,1.52.12,2.18.58.38.27.8.49,1.11.86.16.19.28.4.43.6.3.42.59.84.9,1.25.33.44.55.94.69,1.47.21.74.41,1.48.49,2.25.08.77.08,1.54.01,2.31-.04.47-.06.96-.18,1.42-.07.26-.13.52-.2.78-.02.06-.04.14-.12.14-.07,0-.11-.07-.13-.13-.18-.44-.23-.88.01-1.31.02-.04.04-.08.05-.12.06-.15-.27-.26-.06-.4.18-.12.09-.28.11-.42.02-.16.01-.31,0-.47-.06-.93-.14-1.86-.41-2.77-.1-.34-.17-.69-.26-1.04-.09-.34-.22-.67-.44-.96-.38-.52-.73-1.06-1.09-1.6-.23-.35-.52-.63-.86-.88-.13-.09-.28-.19-.35-.34-.26-.1-.46-.31-.71-.42-.13-.06.08-.15-.04-.19-.08-.03-.17-.11-.24-.1-.26.03-.46-.13-.69-.17-.16-.03-.25-.14-.2-.33Z"/><path class="cls-2" d="M44.89,15.66c.34-.55.67-1.11,1.01-1.66.31-.51.69-.96,1.16-1.34.66-.53,1.42-.69,2.24-.61.55.05.92.37,1.15.86.24.51.36,1.06.48,1.6.24,1.11.29,2.24.31,3.37.03,1.63.08,3.27.04,4.9,0,.27-.02.54.06.8-.03.16.03.33-.03.52-.17-.1-.25-.27-.35-.4-.17-.21-.35-.41-.54-.59-.7-.68-1.34-1.41-1.99-2.13-.84-.94-1.68-1.88-2.45-2.88-.35-.46-.76-.88-1.07-1.37q-.35-.54-.01-1.06Z"/><path class="cls-1" d="M15.2,6.75c.06-.02.12.01.17.05,0,0,.01.02.02.02-.03.03-.06.01-.08,0-.05-.02-.11-.03-.13-.07,0,0,0,0,0,0,0,0,.01,0,.03,0Z"/><path class="cls-2" d="M15.71,17.1c-.48.38-1,.7-1.48,1.09-.42.35-.84.69-1.23,1.07-.77.75-1.52,1.51-2.27,2.27-.16.16-.29.34-.45.49-.07.07-.08,0-.09-.06-.02,0-.04,0-.06,0,0-.04.01-.06.05-.08-.04-.88-.18-1.76-.29-2.63-.12-.93-.27-1.86-.33-2.8-.06-.93.02-1.83.35-2.71.07-.2.17-.39.28-.57.66-1.16,2.16-1.26,3-.78.27.16.53.34.75.56.46.46.87.96,1.18,1.54.35.66.72,1.32,1,2.01-.04.26-.2.43-.4.59Z"/><path class="cls-1" d="M18.76,2.69c-.63.11-1.24.28-1.84.49-.09.03-.19.07-.28.12-.47.25-.54.5-.24.94.24.36.54.65.92.86.06.03.12.06.17.1.07.05.22.06.17.2-.05.14-.16.2-.32.17-.32-.06-.63-.17-.91-.32-.3-.17-.57-.39-.84-.6-.14-.12-.22-.26-.18-.46.08-.42.23-.81.52-1.14.05-.06.12-.09.19-.13.8-.39,1.65-.62,2.52-.75.85-.12,1.7-.19,2.56-.23.9-.03,1.8-.12,2.71-.12.85,0,1.7,0,2.55.02.06,0,.13-.03.2.05-.14.11-.32.11-.47.13-.53.09-1.06.16-1.6.15-.87-.03-1.74.11-2.6.18-1.08.09-2.16.15-3.23.34Z"/><path class="cls-1" d="M32.17,6.01c-.27-.02-.54-.02-.8-.03-1.13-.05-2.25-.15-3.37-.25-.19-.02-.38-.08-.58-.12,0-.02,0-.05,0-.07.23-.05.46-.02.7-.02.12,0,.25.01.37.01.8,0,1.6.07,2.4.11.6.03,1.21,0,1.81.03.49.02.97,0,1.46.02.35.01.71-.01,1.07-.06.1-.01.22-.02.31-.11.08-.08.19-.07.28-.06.13.02.26.05.38-.01.05-.02.13-.02.16,0,.22.17.41.06.61-.03.05-.02.21-.13.12.09-.04.09.07.06.11.06.32.02.64-.05.97-.06.61-.02,1.22-.09,1.83-.18.34-.05.69-.07,1.03-.08,1.14-.04,2.26-.18,3.37-.47.32-.08.61-.2.89-.43.04.29-.13.41-.3.52-.27.18-.58.28-.9.37-.82.22-1.66.31-2.51.35-.62.03-1.24.11-1.86.17-1.07.11-2.13.17-3.21.16-.66,0-1.31.08-1.97.11-.79.04-1.58.03-2.38-.04Z"/><path class="cls-1" d="M40.66,10.33c.09-.1.02-.21-.01-.31-.12-.29-.18-.58-.06-.89.01-.03,0-.07,0-.1-.03-.18-.12-.37-.09-.55.02-.19.03-.37,0-.55.31-.08.39-.05.52.21.18.36.24.76.33,1.15.23,1.03.25,2.08.18,3.12-.04.6-.1,1.2-.25,1.78-.08.31-.1.34-.4.44-.01-.3-.03-.6-.03-.9-.02-.84-.03-1.69-.05-2.53,0-.12-.02-.25-.07-.36-.04-.09-.11-.16-.01-.25.11-.11-.15-.15-.05-.27Z"/><path class="cls-4" d="M54.86,48.01c0,.06-.02.13-.14.18-.22-.42-.25-.88-.28-1.33-.05-.82.06-1.64.07-2.46,0-.36.04-.73-.01-1.07-.04-.3-.08-.59-.09-.89,0-.13.04-.26.09-.39.02-.06.05-.14.16-.12.08.01.17,0,.17.11-.02.52.26.96.34,1.46.05.35.06.71.07,1.07.02.81-.13,1.63-.23,2.44-.04.34-.18.68-.14,1.02Z"/><path class="cls-4" d="M56.15,36.93c.03.15.08.3.12.44.16.58.31,1.15.49,1.72.17.52.32,1.04.39,1.58.06.44.16.87.14,1.32,0,.12-.03.26.09.35.03.02.03.07.01.1-.18.35-.1.7-.14,1.05-.06.62-.18,1.24-.3,1.85-.11.57-.25,1.13-.42,1.69-.13.43-.36.83-.56,1.24-.04.09-.12.11-.21.1-.14-.02-.07-.11-.06-.18.18-.84.33-1.67.42-2.51.07-.68.15-1.36.19-2.03.02-.3,0-.6.04-.9.01-.11.05-.22-.04-.32-.03-.03-.05-.07.02-.12.05-.03.02-.09.02-.13-.03-.3-.04-.6-.05-.9,0-.31-.06-.62-.11-.92-.02-.16-.24-.27-.13-.48-.1-.04-.17-.12-.25-.18-.14-.1-.15-.24-.15-.38,0-.04,0-.07.04-.1.22-.15.13-.29.05-.42-.05-.07-.03-.16-.05-.26-.06.03-.1.05-.14.07-.1.05-.11-.02-.12-.07-.02-.06.02-.08.09-.08.05,0,.1.02.14-.04.07-.12-.14-.15-.05-.29.04-.07-.08-.19-.25-.1-.04.02-.1-.01-.08-.05.03-.08-.03-.17.06-.24.17-.13.17-.27.13-.43-.13-.56-.2-1.14-.39-1.69-.23-.67-.51-1.31-.97-1.88-.05-.07-.09-.14-.11-.22-.01-.04,0-.07.04-.1.04-.02.09-.03.12-.01.07.04.13.08.19.13.46.35.74.81,1,1.28.18.32.32.65.46.99.14.36.23.74.31,1.12Z"/><path class="cls-4" d="M51.41,9.56c-.27-.1-.46-.31-.72-.42-.13-.06.08-.15-.04-.19-.08-.03-.17-.11-.24-.1-.26.03-.46-.13-.69-.17-.16-.03-.25-.14-.2-.33.79-.03,1.52.12,2.18.58.38.27.8.49,1.11.86.16.19.28.4.43.6.3.42.59.84.9,1.25.33.44.55.94.69,1.47.21.74.41,1.48.49,2.25.08.77.08,1.54.01,2.31-.04.47-.06.96-.18,1.42-.07.26-.13.52-.2.78-.02.06-.04.14-.12.14-.07,0-.11-.07-.13-.13-.18-.44-.23-.88.01-1.31.02-.04.04-.08.05-.12.06-.15-.27-.26-.06-.4.18-.12.09-.28.11-.42.02-.16.01-.31,0-.47-.06-.93-.14-1.86-.41-2.77-.1-.34-.17-.69-.26-1.04-.09-.34-.22-.67-.44-.96-.38-.52-.73-1.06-1.09-1.6-.23-.35-.52-.63-.86-.88-.13-.09-.28-.19-.35-.35.14-.04.2.15.34.13,0,.04.02.07.07.07,0,.04.03.07.07.07.03.07.08.12.17.12-.03-.1-.09-.12-.17-.11,0-.05-.02-.07-.07-.07,0-.05-.03-.06-.07-.07-.1-.16-.25-.26-.44-.35.02.11.11.14.11.21Z"/><path class="cls-4" d="M26.66,1.89c-.14.11-.32.11-.47.13-.53.09-1.06.16-1.6.15-.87-.03-1.74.11-2.6.18-1.08.09-2.16.15-3.23.34-.63.11-1.24.28-1.84.49-.09.03-.19.07-.28.12-.47.25-.54.5-.24.94.24.36.54.65.92.86.06.03.12.06.17.1.07.05.22.06.17.2-.05.14-.16.2-.32.17-.32-.06-.63-.17-.91-.32-.3-.17-.57-.39-.84-.6-.14-.12-.22-.26-.18-.46.08-.42.23-.81.52-1.14.05-.06.12-.09.19-.13.8-.39,1.65-.62,2.52-.75.85-.12,1.7-.19,2.56-.23.9-.03,1.8-.12,2.71-.12.85,0,1.7,0,2.55.02.06,0,.13-.03.2.05Z"/><path class="cls-4" d="M27.43,5.54c.23-.05.46-.02.7-.02.12,0,.25.01.37.01.8,0,1.6.07,2.4.11.6.03,1.21,0,1.81.03.49.02.97,0,1.46.02.35.01.71-.01,1.07-.06.1-.01.22-.02.31-.11.08-.08.19-.07.28-.06.13.02.26.05.38-.01.05-.02.13-.02.16,0,.22.17.41.06.61-.03.05-.02.21-.13.12.09-.04.09.07.06.11.06.32.02.64-.05.97-.06.61-.02,1.22-.09,1.83-.18.34-.05.69-.07,1.03-.08,1.14-.04,2.26-.18,3.37-.47.32-.08.61-.2.89-.43.04.29-.13.41-.3.52-.27.18-.58.28-.9.37-.82.22-1.66.31-2.51.35-.62.03-1.24.11-1.86.17-1.07.11-2.13.17-3.21.16-.66,0-1.31.08-1.97.11-.79.04-1.58.03-2.38-.04-.27-.02-.54-.02-.8-.03-1.13-.05-2.25-.15-3.37-.25-.19-.02-.38-.08-.58-.12,0-.02,0-.05,0-.07Z"/><path class="cls-4" d="M40.87,14.63c-.01-.3-.03-.6-.03-.9-.02-.84-.03-1.69-.05-2.53,0-.12-.02-.25-.07-.36-.04-.09-.11-.16-.01-.25.11-.11-.15-.15-.05-.27.09-.1.02-.21-.01-.31-.12-.29-.18-.58-.06-.89.01-.03,0-.07,0-.1-.03-.18-.12-.37-.09-.55.02-.19.03-.37,0-.55.31-.08.39-.05.52.21.18.36.24.76.33,1.15.23,1.03.25,2.08.18,3.12-.04.6-.1,1.2-.25,1.78-.08.31-.1.34-.4.44Z"/><path class="cls-4" d="M54.3,21.36c.08,0,.04.11.11.1.06-.01.1-.08.07-.13-.11-.22.08-.31.18-.41.11-.11.22.03.3.09.07.05.08.15.08.24-.01.3-.15.55-.3.8-.03.04-.08.08-.13.1-.15.07-.24.03-.29-.14-.06-.21-.06-.43-.02-.64Z"/><path class="cls-4" d="M54.53,22.54c.1.17.11.35.1.51,0,.17-.06.33.1.46.04.03.02.09-.02.11-.02.01-.07.02-.09,0-.38-.19-.44-.74-.1-1.09Z"/><path class="cls-4" d="M15.39,6.83s-.06.01-.08,0c-.05-.02-.11-.03-.13-.07-.02-.02-.02,0,.02,0,.06-.02.12.01.17.05,0,0,.01.02.02.02Z"/><path class="cls-1" d="M47.19,64.41s0-.06,0-.09c.07.04-.02.06,0,.09,0,0,0,0,0,0Z"/><path class="cls-4" d="M23.95,81.25c-.5-.14-1-.28-1.49-.42-.15-.04-.25-.16-.34-.33.69.18,1.37.25,2.06.31.39.04.79.05,1.17,0,.79-.09,1.59-.1,2.38-.07.36.02.73.02,1.1.02.84,0,1.67.09,2.5.12.88.04,1.75.04,2.62-.14.38.07.74-.11,1.11-.05.05,0,.12.02.17,0,.35-.16.73-.15,1.1-.15.05,0,.1-.04.15-.06.07-.02.16-.06.22-.05.56.13,1.08-.08,1.61-.17.59-.09,1.17-.21,1.74-.4.29-.09.59-.08.91-.03-.02.22-.17.3-.34.36-.44.14-.87.28-1.31.41-.96.29-1.92.57-2.91.77-.75.15-1.5.19-2.26.23-.51.03-1.01.06-1.52.09-.75.05-1.49-.02-2.23-.11-.62-.07-1.24-.1-1.86-.14-.88-.05-1.75-.1-2.63-.12-.39,0-.78.02-1.17,0-.27,0-.54-.03-.81-.11,0,0,.02,0,.02,0,0,0,0-.01,0-.02,0,0-.02.02-.03.03Z"/><path class="cls-4" d="M42.25,84.73c-.08-.14-.02-.23.02-.32.21-.47.35-.96.43-1.46.1-.6.12-1.2-.18-1.76-.03-.05-.04-.1-.06-.15,0,0,0-.02.01-.06.19.02.33.06.42.28.21.5.3.99.19,1.53-.11.55-.27,1.08-.54,1.58-.07.13-.13.28-.3.36Z"/><path class="cls-1" d="M51.41,9.56c0-.08-.09-.11-.11-.21.19.09.34.19.44.35h0c-.14,0-.19-.17-.34-.14,0,0,0,0,0,0Z"/><path class="cls-1" d="M51.87,9.83c.08-.01.14.01.17.11-.09,0-.14-.05-.17-.12,0,0,0,0,0,0Z"/><path class="cls-1" d="M51.81,9.76s.07.02.07.07c0,0,0,0,0,0-.04,0-.07-.02-.07-.07h0Z"/><path class="cls-1" d="M51.74,9.69s.07.02.07.07c0,0,0,0,0,0-.04,0-.07-.03-.07-.07,0,0,0,0,0,0Z"/><path class="cls-3" d="M23.95,81.25s.02-.02.03-.03c0,0,0,.01,0,.02,0,0-.02,0-.02,0,0,0,0,0,0,0Z"/><path class="cls-4" d="M21,61.31l14.22,2.2c.96-4.53.82-9.75.07-13.4l-14.63-7.62c-.27-6.04-.21-11.33.96-15.25,1.65-2.47,3.98-4.74,6.39-6.66l12.23,1.65-2.27,5.01-11.61-1.72c-1.24,4.4-1.17,9.14-.83,12.3l14.43,7.08c.96,6.39.82,11.82-.48,16.56-1.65,2.68-3.98,5.29-5.98,7.21l-14.49-1.92,1.99-5.43Z"/></svg>