<?xml version="1.0" encoding="UTF-8"?>
<svg id="Layer_1" xmlns="http://www.w3.org/2000/svg" xmlns:xlink="http://www.w3.org/1999/xlink" version="1.1" viewBox="0 0 110.7 137.5">
  <!-- Generator: Adobe Illustrator 29.7.1, SVG Export Plug-In . SVG Version: 2.1.1 Build 8)  -->
  <defs>
    <style>
      .st0, .st1 {
        fill-rule: evenodd;
      }

      .st0, .st2 {
        fill: none;
        stroke: #000;
        stroke-miterlimit: 10;
        stroke-width: 5.2px;
      }

      .st2 {
        clip-rule: evenodd;
      }

      .st3 {
        clip-path: url(#clippath);
      }
    </style>
    <clipPath id="clippath">
      <path class="st2" d="M72.8,39.8c14.3,0,26,13.5,26,13.5,0,0-11.6,13.5-26,13.5s-26-13.5-26-13.5c0,0,11.6-13.5,26-13.5Z"/>
    </clipPath>
  </defs>
  <path class="st0" d="M31.9,47.7c0,.3-3.6,4.4-3.5,4.7l-25.7,14.1v43.4l28.7-14.3h7.8"/>
  <path class="st0" d="M107.3,46.2c-.5-2.6-1.4-6-3-9.5"/>
  <path class="st0" d="M98.6,81.5v-4.3h9.5v-25.5s0-2.2-.7-5.5"/>
  <g>
    <g class="st3">
      <path class="st1" d="M83.8,49.4c5.3,0,9.5,4,9.5,8.8s-4.3,8.8-9.5,8.8-9.5-4-9.5-8.8,4.3-8.8,9.5-8.8Z"/>
    </g>
    <path class="st0" d="M72.8,39.8c14.3,0,26,13.5,26,13.5,0,0-11.6,13.5-26,13.5s-26-13.5-26-13.5c0,0,11.6-13.5,26-13.5Z"/>
  </g>
  <path class="st0" d="M104.5,37.2c-2.6-4.9-7.9-12.6-13.8-14.6-5.2-1.8-11.8,1.8-18.1,2.4-5.6.5-12.7-2.1-18.3.7s-7.2,9.6-11.5,14.3c-3.8,4-10.1,5.2-13,11-.3.4-1,1.7-1,1.2s0-1.5,0-2,0-1.5,0-2.1c0-3.7,3.1-3.6,3.1-7.4,0-3.7-3-3.8-2.9-7.5,0-3.7,4.6-6.6,4.6-10.4s-4.4-6-4.4-9.7.1-3.7,3.4-5.4c6.4-3.3,6.1-4.3,13.3-4.3s7.2,4.5,14.4,4.4,7.2-4.6,14.4-4.6c7.2,0,7.2,4.5,14.4,4.4,7.2,0,8.3-6.8,15.1-4.5,2.4.8-3,7.2-3,9.8,0,2.5,4.5,2.5,4.5,5,0,2.5-1.5,4.1-1.5,6.6s2.9,3.1,3.4,5.5c.9,3.9-.2,8.2-2.7,8.5-.2-.4-.4-.8-.6-1.3"/>
  <path class="st0" d="M97.7,80.2c-5.6,2.4-10.8.7-17.6.8-6,0-12.8,3.7-19.5,2.4-6-1.2-13.4-6.6-19.7-8.7-3,3.4,3.9,6.1,3.9,10.6,0,4.6-4.5,4.6-4.5,9.1,0,4.6,3.3,4.1,4.4,8.6.9,3.4-2.1,4.7-.2,7.6,2,2.9,5.7.4,7.6,3.3,2,2.9-2,6,.4,8.6,3.5,3.8,6.5-1,11.6,1.7,2.9,1.5,4.3,7.2,7.5,8.4,3.5,1.3,7.8-2.1,10.8-2.1s3.7,4.5,5.4,4.5,3.9-4.5,5.4-4.5c3.4,0,7.3,5.2,7.7,2.5,1-8.8-4.5-9.1-4.5-17.9,0-8.8,4.2-8.8,4.5-17.6.3-8.6-.3-8.9-3.4-17.2Z"/>
</svg>